<svg xmlns="http://www.w3.org/2000/svg" fill="none" viewBox="27.62 65.45 373.08 454.86">
<path d="M384.755 301.09V415.572H178.58V326.391H196.465V355.46H201.07V304.659H223.813V352.875H226.824V291.724H246.591V308.505H256.727V329.392H259.797V316.256H277.767V355.448H283.021V323.591H299.456V299.386H310.63V285.608H323.558V346.736H327.909V321.221H349.202V357.739H352.145V327.936H373.742V301.09H384.755Z" fill="#E7DCDC"/>
<path d="M183.798 330.047H180.771V335.605H183.798V330.047Z" fill="white"/>
<path d="M189.043 330.047H186.017V335.605H189.043V330.047Z" fill="white"/>
<path d="M194.289 330.047H191.262V335.605H194.289V330.047Z" fill="white"/>
<path d="M183.798 338.41H180.771V343.967H183.798V338.41Z" fill="white"/>
<path d="M189.043 338.41H186.017V343.967H189.043V338.41Z" fill="white"/>
<path d="M194.289 338.41H191.262V343.967H194.289V338.41Z" fill="white"/>
<path d="M183.798 346.771H180.771V352.328H183.798V346.771Z" fill="white"/>
<path d="M189.043 346.771H186.017V352.328H189.043V346.771Z" fill="white"/>
<path d="M194.289 346.771H191.262V352.328H194.289V346.771Z" fill="white"/>
<path d="M183.798 355.133H180.771V360.69H183.798V355.133Z" fill="white"/>
<path d="M189.043 355.133H186.017V360.69H189.043V355.133Z" fill="white"/>
<path d="M194.289 355.133H191.262V360.69H194.289V355.133Z" fill="white"/>
<path d="M288.572 327.559H285.546V332.195H288.572V327.559Z" fill="white"/>
<path d="M293.817 327.559H290.791V332.195H293.817V327.559Z" fill="white"/>
<path d="M299.063 327.559H296.036V332.195H299.063V327.559Z" fill="white"/>
<path d="M288.572 334.535H285.546V339.171H288.572V334.535Z" fill="white"/>
<path d="M293.817 334.535H290.791V339.171H293.817V334.535Z" fill="white"/>
<path d="M299.063 334.535H296.036V339.171H299.063V334.535Z" fill="white"/>
<path d="M288.572 341.511H285.546V346.147H288.572V341.511Z" fill="white"/>
<path d="M293.817 341.511H290.791V346.147H293.817V341.511Z" fill="white"/>
<path d="M299.063 341.511H296.036V346.147H299.063V341.511Z" fill="white"/>
<path d="M288.572 348.487H285.546V353.124H288.572V348.487Z" fill="white"/>
<path d="M293.817 348.487H290.791V353.124H293.817V348.487Z" fill="white"/>
<path d="M299.063 348.487H296.036V353.124H299.063V348.487Z" fill="white"/>
<path d="M288.572 355.636H285.546V360.272H288.572V355.636Z" fill="white"/>
<path d="M293.817 355.636H290.791V360.272H293.817V355.636Z" fill="white"/>
<path d="M299.063 355.636H296.036V360.272H299.063V355.636Z" fill="white"/>
<path d="M288.572 362.784H285.546V367.421H288.572V362.784Z" fill="white"/>
<path d="M293.817 362.784H290.791V367.421H293.817V362.784Z" fill="white"/>
<path d="M299.063 362.784H296.036V367.421H299.063V362.784Z" fill="white"/>
<path d="M288.572 369.933H285.546V374.569H288.572V369.933Z" fill="white"/>
<path d="M293.817 369.933H290.791V374.569H293.817V369.933Z" fill="white"/>
<path d="M299.063 369.933H296.036V374.569H299.063V369.933Z" fill="white"/>
<path d="M288.572 377.082H285.546V381.718H288.572V377.082Z" fill="white"/>
<path d="M293.817 377.082H290.791V381.718H293.817V377.082Z" fill="white"/>
<path d="M299.063 377.082H296.036V381.718H299.063V377.082Z" fill="white"/>
<path d="M221.074 308.22H203.652V311.696H221.074V308.22Z" fill="white"/>
<path d="M221.074 314.964H203.652V318.44H221.074V314.964Z" fill="white"/>
<path d="M221.074 321.708H203.652V325.183H221.074V321.708Z" fill="white"/>
<path d="M221.074 328.452H203.652V331.928H221.074V328.452Z" fill="white"/>
<path d="M221.074 335.195H203.652V338.671H221.074V335.195Z" fill="white"/>
<path d="M221.074 341.94H203.652V345.416H221.074V341.94Z" fill="white"/>
<path d="M221.074 348.683H203.652V352.159H221.074V348.683Z" fill="white"/>
<path d="M221.074 355.427H203.652V358.903H221.074V355.427Z" fill="white"/>
<path d="M346.499 324.467H330.481V327.942H346.499V324.467Z" fill="white"/>
<path d="M346.499 331.211H330.481V334.687H346.499V331.211Z" fill="white"/>
<path d="M346.499 337.954H330.481V341.43H346.499V337.954Z" fill="white"/>
<path d="M346.499 344.698H330.481V348.174H346.499V344.698Z" fill="white"/>
<path d="M346.499 351.442H330.481V354.918H346.499V351.442Z" fill="white"/>
<path d="M346.499 358.186H330.481V361.662H346.499V358.186Z" fill="white"/>
<path d="M346.499 364.929H330.481V368.405H346.499V364.929Z" fill="white"/>
<path d="M346.499 371.674H330.481V375.15H346.499V371.674Z" fill="white"/>
<path d="M346.499 378.082H330.481V381.557H346.499V378.082Z" fill="white"/>
<path d="M346.499 384.489H330.481V387.965H346.499V384.489Z" fill="white"/>
<path d="M346.499 390.898H330.481V394.374H346.499V390.898Z" fill="white"/>
<path d="M346.499 397.305H330.481V400.781H346.499V397.305Z" fill="white"/>
<path d="M346.499 403.713H330.481V407.189H346.499V403.713Z" fill="white"/>
<path d="M372.396 332.613H355.477V336.088H372.396V332.613Z" fill="white"/>
<path d="M372.396 339.357H355.477V342.833H372.396V339.357Z" fill="white"/>
<path d="M372.396 346.1H355.477V349.576H372.396V346.1Z" fill="white"/>
<path d="M372.396 352.844H355.477V356.32H372.396V352.844Z" fill="white"/>
<path d="M372.396 359.588H355.477V363.064H372.396V359.588Z" fill="white"/>
<path d="M372.396 366.332H355.477V369.808H372.396V366.332Z" fill="white"/>
<path d="M372.396 373.075H355.477V376.551H372.396V373.075Z" fill="white"/>
<path d="M372.396 379.819H355.477V383.295H372.396V379.819Z" fill="white"/>
<path d="M372.396 385.855H355.477V389.331H372.396V385.855Z" fill="white"/>
<path d="M372.396 391.892H355.477V395.367H372.396V391.892Z" fill="white"/>
<path d="M372.396 397.927H355.477V401.403H372.396V397.927Z" fill="white"/>
<path d="M270.431 319.404H265.052V322.76H270.431V319.404Z" fill="white"/>
<path d="M270.431 325.917H265.052V329.273H270.431V325.917Z" fill="white"/>
<path d="M270.431 332.43H265.052V335.786H270.431V332.43Z" fill="white"/>
<path d="M270.431 338.941H265.052V342.298H270.431V338.941Z" fill="white"/>
<path d="M270.431 345.454H265.052V348.81H270.431V345.454Z" fill="white"/>
<path d="M270.431 351.967H265.052V355.323H270.431V351.967Z" fill="white"/>
<path d="M270.431 358.48H265.052V361.836H270.431V358.48Z" fill="white"/>
<path d="M270.431 364.992H265.052V368.348H270.431V364.992Z" fill="white"/>
<path d="M277.753 319.404H272.373V322.76H277.753V319.404Z" fill="white"/>
<path d="M277.753 325.917H272.373V329.273H277.753V325.917Z" fill="white"/>
<path d="M277.753 332.43H272.373V335.786H277.753V332.43Z" fill="white"/>
<path d="M277.753 338.941H272.373V342.298H277.753V338.941Z" fill="white"/>
<path d="M277.753 345.454H272.373V348.81H277.753V345.454Z" fill="white"/>
<path d="M277.753 351.967H272.373V355.323H277.753V351.967Z" fill="white"/>
<path d="M277.753 358.48H272.373V361.836H277.753V358.48Z" fill="white"/>
<path d="M277.753 364.992H272.373V368.348H277.753V364.992Z" fill="white"/>
<path d="M235.428 295.243H229.822V300.536H235.428V295.243Z" fill="white"/>
<path d="M243.783 295.243H238.178V300.536H243.783V295.243Z" fill="white"/>
<path d="M235.428 303.019H229.822V308.312H235.428V303.019Z" fill="white"/>
<path d="M243.783 303.019H238.178V308.312H243.783V303.019Z" fill="white"/>
<path d="M235.428 310.794H229.822V316.087H235.428V310.794Z" fill="white"/>
<path d="M243.783 310.794H238.178V316.087H243.783V310.794Z" fill="white"/>
<path d="M235.428 318.57H229.822V323.863H235.428V318.57Z" fill="white"/>
<path d="M243.783 318.57H238.178V323.863H243.783V318.57Z" fill="white"/>
<path d="M235.428 326.346H229.822V331.639H235.428V326.346Z" fill="white"/>
<path d="M243.783 326.346H238.178V331.639H243.783V326.346Z" fill="white"/>
<path d="M235.428 334.122H229.822V339.415H235.428V334.122Z" fill="white"/>
<path d="M243.783 334.122H238.178V339.415H243.783V334.122Z" fill="white"/>
<path d="M235.428 341.896H229.822V347.189H235.428V341.896Z" fill="white"/>
<path d="M243.783 341.896H238.178V347.189H243.783V341.896Z" fill="white"/>
<path d="M235.428 349.672H229.822V354.965H235.428V349.672Z" fill="white"/>
<path d="M243.783 349.672H238.178V354.965H243.783V349.672Z" fill="white"/>
<path d="M254.141 310.794H248.536V316.087H254.141V310.794Z" fill="white"/>
<path d="M254.141 318.57H248.536V323.863H254.141V318.57Z" fill="white"/>
<path d="M254.141 326.346H248.536V331.639H254.141V326.346Z" fill="white"/>
<path d="M254.141 334.122H248.536V339.415H254.141V334.122Z" fill="white"/>
<path d="M254.141 341.896H248.536V347.189H254.141V341.896Z" fill="white"/>
<path d="M254.141 349.672H248.536V354.965H254.141V349.672Z" fill="white"/>
<path d="M235.428 357.355H229.822V362.648H235.428V357.355Z" fill="white"/>
<path d="M243.783 357.355H238.178V362.648H243.783V357.355Z" fill="white"/>
<path d="M254.141 357.355H248.536V362.648H254.141V357.355Z" fill="white"/>
<path d="M235.428 365.038H229.822V370.331H235.428V365.038Z" fill="white"/>
<path d="M243.783 365.038H238.178V370.331H243.783V365.038Z" fill="white"/>
<path d="M254.141 365.038H248.536V370.331H254.141V365.038Z" fill="white"/>
<path d="M235.428 372.722H229.822V378.015H235.428V372.722Z" fill="white"/>
<path d="M243.783 372.722H238.178V378.015H243.783V372.722Z" fill="white"/>
<path d="M254.141 372.722H248.536V378.015H254.141V372.722Z" fill="white"/>
<path d="M235.428 380.405H229.822V385.698H235.428V380.405Z" fill="white"/>
<path d="M243.783 380.405H238.178V385.698H243.783V380.405Z" fill="white"/>
<path d="M254.141 380.405H248.536V385.698H254.141V380.405Z" fill="white"/>
<path d="M235.428 388.088H229.822V393.381H235.428V388.088Z" fill="white"/>
<path d="M243.783 388.088H238.178V393.381H243.783V388.088Z" fill="white"/>
<path d="M254.141 388.088H248.536V393.381H254.141V388.088Z" fill="white"/>
<path d="M304.766 302.797H301.74V307.433H304.766V302.797Z" fill="white"/>
<path d="M310.011 302.797H306.985V307.433H310.011V302.797Z" fill="white"/>
<path d="M304.766 309.773H301.74V314.41H304.766V309.773Z" fill="white"/>
<path d="M310.011 309.773H306.985V314.41H310.011V309.773Z" fill="white"/>
<path d="M304.766 316.749H301.74V321.386H304.766V316.749Z" fill="white"/>
<path d="M310.011 316.749H306.985V321.386H310.011V316.749Z" fill="white"/>
<path d="M304.766 323.725H301.74V328.361H304.766V323.725Z" fill="white"/>
<path d="M310.011 323.725H306.985V328.361H310.011V323.725Z" fill="white"/>
<path d="M304.766 330.874H301.74V335.51H304.766V330.874Z" fill="white"/>
<path d="M310.011 330.874H306.985V335.51H310.011V330.874Z" fill="white"/>
<path d="M304.766 338.023H301.74V342.659H304.766V338.023Z" fill="white"/>
<path d="M310.011 338.023H306.985V342.659H310.011V338.023Z" fill="white"/>
<path d="M304.766 345.172H301.74V349.809H304.766V345.172Z" fill="white"/>
<path d="M310.011 345.172H306.985V349.809H310.011V345.172Z" fill="white"/>
<path d="M304.766 352.321H301.74V356.956H304.766V352.321Z" fill="white"/>
<path d="M310.011 352.321H306.985V356.956H310.011V352.321Z" fill="white"/>
<path d="M304.766 359.545H301.74V364.182H304.766V359.545Z" fill="white"/>
<path d="M310.011 359.545H306.985V364.182H310.011V359.545Z" fill="white"/>
<path d="M304.766 366.77H301.74V371.406H304.766V366.77Z" fill="white"/>
<path d="M310.011 366.77H306.985V371.406H310.011V366.77Z" fill="white"/>
<path d="M304.766 373.994H301.74V378.63H304.766V373.994Z" fill="white"/>
<path d="M310.011 373.994H306.985V378.63H310.011V373.994Z" fill="white"/>
<path d="M304.766 381.218H301.74V385.855H304.766V381.218Z" fill="white"/>
<path d="M310.011 381.218H306.985V385.855H310.011V381.218Z" fill="white"/>
<path d="M378.664 303.552H375.638V309.014H378.664V303.552Z" fill="white"/>
<path d="M383.91 303.552H380.883V309.014H383.91V303.552Z" fill="white"/>
<path d="M378.664 311.77H375.638V317.232H378.664V311.77Z" fill="white"/>
<path d="M383.91 311.77H380.883V317.232H383.91V311.77Z" fill="white"/>
<path d="M378.664 319.988H375.638V325.45H378.664V319.988Z" fill="white"/>
<path d="M383.91 319.988H380.883V325.45H383.91V319.988Z" fill="white"/>
<path d="M378.664 328.207H375.638V333.669H378.664V328.207Z" fill="white"/>
<path d="M383.91 328.207H380.883V333.669H383.91V328.207Z" fill="white"/>
<path d="M378.664 336.629H375.638V342.091H378.664V336.629Z" fill="white"/>
<path d="M383.91 336.629H380.883V342.091H383.91V336.629Z" fill="white"/>
<path d="M378.664 345.051H375.638V350.513H378.664V345.051Z" fill="white"/>
<path d="M383.91 345.051H380.883V350.513H383.91V345.051Z" fill="white"/>
<path d="M378.664 353.473H375.638V358.935H378.664V353.473Z" fill="white"/>
<path d="M383.91 353.473H380.883V358.935H383.91V353.473Z" fill="white"/>
<path d="M378.664 361.895H375.638V367.357H378.664V361.895Z" fill="white"/>
<path d="M383.91 361.895H380.883V367.357H383.91V361.895Z" fill="white"/>
<path d="M378.664 370.406H375.638V375.869H378.664V370.406Z" fill="white"/>
<path d="M383.91 370.406H380.883V375.869H383.91V370.406Z" fill="white"/>
<path d="M378.664 378.918H375.638V384.38H378.664V378.918Z" fill="white"/>
<path d="M383.91 378.918H380.883V384.38H383.91V378.918Z" fill="white"/>
<path d="M378.664 387.429H375.638V392.891H378.664V387.429Z" fill="white"/>
<path d="M383.91 387.429H380.883V392.891H383.91V387.429Z" fill="white"/>
<path d="M378.664 395.94H375.638V401.403H378.664V395.94Z" fill="white"/>
<path d="M383.91 395.94H380.883V401.403H383.91V395.94Z" fill="white"/>
<path d="M315.983 302.797H312.957V307.433H315.983V302.797Z" fill="white"/>
<path d="M321.228 302.797H318.202V307.433H321.228V302.797Z" fill="white"/>
<path d="M315.983 295.645H312.957V300.281H315.983V295.645Z" fill="white"/>
<path d="M321.228 295.645H318.202V300.281H321.228V295.645Z" fill="white"/>
<path d="M315.983 288.492H312.957V293.129H315.983V288.492Z" fill="white"/>
<path d="M321.228 288.492H318.202V293.129H321.228V288.492Z" fill="white"/>
<path d="M315.983 309.773H312.957V314.41H315.983V309.773Z" fill="white"/>
<path d="M321.228 309.773H318.202V314.41H321.228V309.773Z" fill="white"/>
<path d="M315.983 316.749H312.957V321.386H315.983V316.749Z" fill="white"/>
<path d="M321.228 316.749H318.202V321.386H321.228V316.749Z" fill="white"/>
<path d="M315.983 323.725H312.957V328.361H315.983V323.725Z" fill="white"/>
<path d="M321.228 323.725H318.202V328.361H321.228V323.725Z" fill="white"/>
<path d="M315.983 330.874H312.957V335.51H315.983V330.874Z" fill="white"/>
<path d="M321.228 330.874H318.202V335.51H321.228V330.874Z" fill="white"/>
<path d="M315.983 338.023H312.957V342.659H315.983V338.023Z" fill="white"/>
<path d="M321.228 338.023H318.202V342.659H321.228V338.023Z" fill="white"/>
<path d="M315.983 345.172H312.957V349.809H315.983V345.172Z" fill="white"/>
<path d="M321.228 345.172H318.202V349.809H321.228V345.172Z" fill="white"/>
<path d="M315.983 352.321H312.957V356.956H315.983V352.321Z" fill="white"/>
<path d="M321.228 352.321H318.202V356.956H321.228V352.321Z" fill="white"/>
<path d="M315.983 359.545H312.957V364.182H315.983V359.545Z" fill="white"/>
<path d="M321.228 359.545H318.202V364.182H321.228V359.545Z" fill="white"/>
<path d="M315.983 366.77H312.957V371.406H315.983V366.77Z" fill="white"/>
<path d="M321.228 366.77H318.202V371.406H321.228V366.77Z" fill="white"/>
<path d="M315.983 373.994H312.957V378.63H315.983V373.994Z" fill="white"/>
<path d="M321.228 373.994H318.202V378.63H321.228V373.994Z" fill="white"/>
<path d="M315.983 381.218H312.957V385.855H315.983V381.218Z" fill="white"/>
<path d="M321.228 381.218H318.202V385.855H321.228V381.218Z" fill="white"/>
<path d="M178.58 415.572H29.245V314.203H47.1314V343.272H51.7351V326.819H74.4786V352.875H77.4892V291.724H97.2561V308.505H107.392V329.392H110.462V316.256H128.433V355.449H133.686V323.591H150.121V299.386H161.295L174.223 299.468V346.736H178.574L178.58 415.572Z" fill="#E7DCDC"/>
<path d="M34.4638 317.86H31.4375V323.417H34.4638V317.86Z" fill="white"/>
<path d="M39.7084 317.86H36.6821V323.417H39.7084V317.86Z" fill="white"/>
<path d="M44.9538 317.86H41.9274V323.417H44.9538V317.86Z" fill="white"/>
<path d="M34.4638 326.222H31.4375V331.779H34.4638V326.222Z" fill="white"/>
<path d="M39.7084 326.222H36.6821V331.779H39.7084V326.222Z" fill="white"/>
<path d="M44.9538 326.222H41.9274V331.779H44.9538V326.222Z" fill="white"/>
<path d="M34.4638 334.583H31.4375V340.14H34.4638V334.583Z" fill="white"/>
<path d="M39.7084 334.583H36.6821V340.14H39.7084V334.583Z" fill="white"/>
<path d="M44.9538 334.583H41.9274V340.14H44.9538V334.583Z" fill="white"/>
<path d="M34.4638 342.945H31.4375V348.503H34.4638V342.945Z" fill="white"/>
<path d="M39.7084 342.945H36.6821V348.503H39.7084V342.945Z" fill="white"/>
<path d="M44.9538 342.945H41.9274V348.503H44.9538V342.945Z" fill="white"/>
<path d="M139.238 327.559H136.212V332.195H139.238V327.559Z" fill="white"/>
<path d="M144.483 327.559H141.457V332.195H144.483V327.559Z" fill="white"/>
<path d="M149.729 327.559H146.703V332.195H149.729V327.559Z" fill="white"/>
<path d="M139.238 334.535H136.212V339.171H139.238V334.535Z" fill="white"/>
<path d="M144.483 334.535H141.457V339.171H144.483V334.535Z" fill="white"/>
<path d="M149.729 334.535H146.703V339.171H149.729V334.535Z" fill="white"/>
<path d="M139.238 341.511H136.212V346.147H139.238V341.511Z" fill="white"/>
<path d="M144.483 341.511H141.457V346.147H144.483V341.511Z" fill="white"/>
<path d="M149.729 341.511H146.703V346.147H149.729V341.511Z" fill="white"/>
<path d="M139.238 348.487H136.212V353.124H139.238V348.487Z" fill="white"/>
<path d="M144.483 348.487H141.457V353.124H144.483V348.487Z" fill="white"/>
<path d="M149.729 348.487H146.703V353.124H149.729V348.487Z" fill="white"/>
<path d="M139.238 355.636H136.212V360.272H139.238V355.636Z" fill="white"/>
<path d="M144.483 355.636H141.457V360.272H144.483V355.636Z" fill="white"/>
<path d="M149.729 355.636H146.703V360.272H149.729V355.636Z" fill="white"/>
<path d="M139.238 362.785H136.212V367.422H139.238V362.785Z" fill="white"/>
<path d="M144.483 362.785H141.457V367.422H144.483V362.785Z" fill="white"/>
<path d="M149.729 362.785H146.703V367.422H149.729V362.785Z" fill="white"/>
<path d="M139.238 369.933H136.212V374.569H139.238V369.933Z" fill="white"/>
<path d="M144.483 369.933H141.457V374.569H144.483V369.933Z" fill="white"/>
<path d="M149.729 369.933H146.703V374.569H149.729V369.933Z" fill="white"/>
<path d="M139.238 377.082H136.212V381.718H139.238V377.082Z" fill="white"/>
<path d="M144.483 377.082H141.457V381.718H144.483V377.082Z" fill="white"/>
<path d="M149.729 377.082H146.703V381.718H149.729V377.082Z" fill="white"/>
<path d="M71.7396 330.38H54.3176V333.856H71.7396V330.38Z" fill="white"/>
<path d="M71.7396 337.125H54.3176V340.6H71.7396V337.125Z" fill="white"/>
<path d="M71.7396 343.868H54.3176V347.343H71.7396V343.868Z" fill="white"/>
<path d="M71.7396 350.612H54.3176V354.088H71.7396V350.612Z" fill="white"/>
<path d="M71.7396 357.355H54.3176V360.831H71.7396V357.355Z" fill="white"/>
<path d="M71.7396 364.1H54.3176V367.576H71.7396V364.1Z" fill="white"/>
<path d="M71.7396 370.843H54.3176V374.319H71.7396V370.843Z" fill="white"/>
<path d="M71.7396 377.587H54.3176V381.063H71.7396V377.587Z" fill="white"/>
<path d="M121.097 319.404H115.717V322.76H121.097V319.404Z" fill="white"/>
<path d="M121.097 325.917H115.717V329.273H121.097V325.917Z" fill="white"/>
<path d="M121.097 332.43H115.717V335.786H121.097V332.43Z" fill="white"/>
<path d="M121.097 338.942H115.717V342.298H121.097V338.942Z" fill="white"/>
<path d="M121.097 345.455H115.717V348.811H121.097V345.455Z" fill="white"/>
<path d="M121.097 351.967H115.717V355.323H121.097V351.967Z" fill="white"/>
<path d="M121.097 358.48H115.717V361.836H121.097V358.48Z" fill="white"/>
<path d="M121.097 364.992H115.717V368.348H121.097V364.992Z" fill="white"/>
<path d="M128.418 319.404H123.038V322.76H128.418V319.404Z" fill="white"/>
<path d="M128.418 325.917H123.038V329.273H128.418V325.917Z" fill="white"/>
<path d="M128.418 332.43H123.038V335.786H128.418V332.43Z" fill="white"/>
<path d="M128.418 338.942H123.038V342.298H128.418V338.942Z" fill="white"/>
<path d="M128.418 345.455H123.038V348.811H128.418V345.455Z" fill="white"/>
<path d="M128.418 351.967H123.038V355.323H128.418V351.967Z" fill="white"/>
<path d="M128.418 358.48H123.038V361.836H128.418V358.48Z" fill="white"/>
<path d="M128.418 364.992H123.038V368.348H128.418V364.992Z" fill="white"/>
<path d="M86.093 295.243H80.4874V300.536H86.093V295.243Z" fill="white"/>
<path d="M94.4483 295.243H88.8436V300.536H94.4483V295.243Z" fill="white"/>
<path d="M86.093 303.019H80.4874V308.312H86.093V303.019Z" fill="white"/>
<path d="M94.4483 303.019H88.8436V308.312H94.4483V303.019Z" fill="white"/>
<path d="M86.093 310.794H80.4874V316.087H86.093V310.794Z" fill="white"/>
<path d="M94.4483 310.794H88.8436V316.087H94.4483V310.794Z" fill="white"/>
<path d="M86.093 318.57H80.4874V323.863H86.093V318.57Z" fill="white"/>
<path d="M94.4483 318.57H88.8436V323.863H94.4483V318.57Z" fill="white"/>
<path d="M86.093 326.346H80.4874V331.639H86.093V326.346Z" fill="white"/>
<path d="M94.4483 326.346H88.8436V331.639H94.4483V326.346Z" fill="white"/>
<path d="M86.093 334.122H80.4874V339.415H86.093V334.122Z" fill="white"/>
<path d="M94.4483 334.122H88.8436V339.415H94.4483V334.122Z" fill="white"/>
<path d="M86.093 341.897H80.4874V347.19H86.093V341.897Z" fill="white"/>
<path d="M94.4483 341.897H88.8436V347.19H94.4483V341.897Z" fill="white"/>
<path d="M86.093 349.673H80.4874V354.966H86.093V349.673Z" fill="white"/>
<path d="M94.4483 349.673H88.8436V354.966H94.4483V349.673Z" fill="white"/>
<path d="M104.806 310.794H99.201V316.087H104.806V310.794Z" fill="white"/>
<path d="M104.806 318.57H99.201V323.863H104.806V318.57Z" fill="white"/>
<path d="M104.806 326.346H99.201V331.639H104.806V326.346Z" fill="white"/>
<path d="M104.806 334.122H99.201V339.415H104.806V334.122Z" fill="white"/>
<path d="M104.806 341.897H99.201V347.19H104.806V341.897Z" fill="white"/>
<path d="M104.806 349.673H99.201V354.966H104.806V349.673Z" fill="white"/>
<path d="M86.093 357.355H80.4874V362.648H86.093V357.355Z" fill="white"/>
<path d="M94.4483 357.355H88.8436V362.648H94.4483V357.355Z" fill="white"/>
<path d="M104.806 357.355H99.201V362.648H104.806V357.355Z" fill="white"/>
<path d="M86.093 365.038H80.4874V370.331H86.093V365.038Z" fill="white"/>
<path d="M94.4483 365.038H88.8436V370.331H94.4483V365.038Z" fill="white"/>
<path d="M104.806 365.038H99.201V370.331H104.806V365.038Z" fill="white"/>
<path d="M86.093 372.722H80.4874V378.015H86.093V372.722Z" fill="white"/>
<path d="M94.4483 372.722H88.8436V378.015H94.4483V372.722Z" fill="white"/>
<path d="M104.806 372.722H99.201V378.015H104.806V372.722Z" fill="white"/>
<path d="M86.093 380.405H80.4874V385.698H86.093V380.405Z" fill="white"/>
<path d="M94.4483 380.405H88.8436V385.698H94.4483V380.405Z" fill="white"/>
<path d="M104.806 380.405H99.201V385.698H104.806V380.405Z" fill="white"/>
<path d="M86.093 388.088H80.4874V393.381H86.093V388.088Z" fill="white"/>
<path d="M94.4483 388.088H88.8436V393.381H94.4483V388.088Z" fill="white"/>
<path d="M104.806 388.088H99.201V393.381H104.806V388.088Z" fill="white"/>
<path d="M155.431 302.798H152.405V307.434H155.431V302.798Z" fill="white"/>
<path d="M160.677 302.798H157.65V307.434H160.677V302.798Z" fill="white"/>
<path d="M155.431 309.773H152.405V314.41H155.431V309.773Z" fill="white"/>
<path d="M160.677 309.773H157.65V314.41H160.677V309.773Z" fill="white"/>
<path d="M155.431 316.75H152.405V321.386H155.431V316.75Z" fill="white"/>
<path d="M160.677 316.75H157.65V321.386H160.677V316.75Z" fill="white"/>
<path d="M155.431 323.725H152.405V328.361H155.431V323.725Z" fill="white"/>
<path d="M160.677 323.725H157.65V328.361H160.677V323.725Z" fill="white"/>
<path d="M155.431 330.874H152.405V335.51H155.431V330.874Z" fill="white"/>
<path d="M160.677 330.874H157.65V335.51H160.677V330.874Z" fill="white"/>
<path d="M155.431 338.023H152.405V342.659H155.431V338.023Z" fill="white"/>
<path d="M160.677 338.023H157.65V342.659H160.677V338.023Z" fill="white"/>
<path d="M155.431 345.172H152.405V349.809H155.431V345.172Z" fill="white"/>
<path d="M160.677 345.172H157.65V349.809H160.677V345.172Z" fill="white"/>
<path d="M155.431 352.321H152.405V356.957H155.431V352.321Z" fill="white"/>
<path d="M160.677 352.321H157.65V356.957H160.677V352.321Z" fill="white"/>
<path d="M155.431 359.545H152.405V364.182H155.431V359.545Z" fill="white"/>
<path d="M160.677 359.545H157.65V364.182H160.677V359.545Z" fill="white"/>
<path d="M155.431 366.77H152.405V371.406H155.431V366.77Z" fill="white"/>
<path d="M160.677 366.77H157.65V371.406H160.677V366.77Z" fill="white"/>
<path d="M155.431 373.994H152.405V378.63H155.431V373.994Z" fill="white"/>
<path d="M160.677 373.994H157.65V378.63H160.677V373.994Z" fill="white"/>
<path d="M155.431 381.219H152.405V385.855H155.431V381.219Z" fill="white"/>
<path d="M160.677 381.219H157.65V385.855H160.677V381.219Z" fill="white"/>
<path d="M166.649 302.798H163.623V307.434H166.649V302.798Z" fill="white"/>
<path d="M171.894 302.798H168.867V307.434H171.894V302.798Z" fill="white"/>
<path d="M166.649 309.773H163.623V314.41H166.649V309.773Z" fill="white"/>
<path d="M171.894 309.773H168.867V314.41H171.894V309.773Z" fill="white"/>
<path d="M166.649 316.75H163.623V321.386H166.649V316.75Z" fill="white"/>
<path d="M171.894 316.75H168.867V321.386H171.894V316.75Z" fill="white"/>
<path d="M166.649 323.725H163.623V328.361H166.649V323.725Z" fill="white"/>
<path d="M171.894 323.725H168.867V328.361H171.894V323.725Z" fill="white"/>
<path d="M166.649 330.874H163.623V335.51H166.649V330.874Z" fill="white"/>
<path d="M171.894 330.874H168.867V335.51H171.894V330.874Z" fill="white"/>
<path d="M166.649 338.023H163.623V342.659H166.649V338.023Z" fill="white"/>
<path d="M171.894 338.023H168.867V342.659H171.894V338.023Z" fill="white"/>
<path d="M166.649 345.172H163.623V349.809H166.649V345.172Z" fill="white"/>
<path d="M171.894 345.172H168.867V349.809H171.894V345.172Z" fill="white"/>
<path d="M166.649 352.321H163.623V356.957H166.649V352.321Z" fill="white"/>
<path d="M171.894 352.321H168.867V356.957H171.894V352.321Z" fill="white"/>
<path d="M166.649 359.545H163.623V364.182H166.649V359.545Z" fill="white"/>
<path d="M171.894 359.545H168.867V364.182H171.894V359.545Z" fill="white"/>
<path d="M166.649 366.77H163.623V371.406H166.649V366.77Z" fill="white"/>
<path d="M171.894 366.77H168.867V371.406H171.894V366.77Z" fill="white"/>
<path d="M166.649 373.994H163.623V378.63H166.649V373.994Z" fill="white"/>
<path d="M171.894 373.994H168.867V378.63H171.894V373.994Z" fill="white"/>
<path d="M166.649 381.219H163.623V385.855H166.649V381.219Z" fill="white"/>
<path d="M171.894 381.219H168.867V385.855H171.894V381.219Z" fill="white"/>
<path d="M37.6823 96.8026C42.0285 96.8026 115.164 97.4464 119.76 97.2514C120.091 97.2392 120.268 96.5888 119.94 96.3705C117.043 94.4503 113.756 94.8359 110.745 93.4786C108.973 92.6797 107.885 91.1296 106.656 89.3524C105.594 87.8145 104.362 86.6367 102.85 86.0273C101.512 85.491 100.066 85.4212 98.7067 85.8534C97.2229 86.3265 95.9346 87.4633 94.5187 88.1802C91.0055 89.9552 87.5908 88.2688 85.0828 84.7886C83.0136 81.9211 80.9792 79.2153 78.1673 77.6719C75.8125 76.3777 73.1985 76.1085 70.8412 77.5356C68.1585 79.1621 66.3178 82.433 63.7982 84.3997C60.8108 86.7364 57.2388 86.1835 53.9401 86.8882C50.6322 87.5951 48.1076 91.3114 45.2146 93.452C44.226 94.1844 43.2133 94.7971 42.0599 94.7595C41.4133 94.7373 40.779 94.5035 40.139 94.396C39.1437 94.2321 38.1973 94.2697 37.5275 95.381C37.3643 95.6525 37.3975 96.8026 37.6823 96.8026Z" fill="#A91B25"/>
<path d="M318.267 176.363C322.613 176.363 395.749 177.006 400.345 176.811C400.675 176.799 400.852 176.149 400.525 175.931C397.627 174.01 394.34 174.396 391.33 173.039C389.558 172.24 388.47 170.69 387.24 168.912C386.179 167.375 384.947 166.197 383.435 165.587C382.097 165.051 380.651 164.981 379.291 165.413C377.808 165.887 376.519 167.023 375.103 167.74C371.59 169.515 368.175 167.829 365.667 164.349C363.598 161.482 361.564 158.775 358.752 157.232C356.397 155.938 353.783 155.669 351.426 157.096C348.743 158.722 346.902 161.993 344.383 163.96C341.395 166.296 337.823 165.744 334.525 166.447C331.217 167.154 328.692 170.87 325.799 173.011C324.811 173.743 323.799 174.356 322.645 174.318C321.998 174.296 321.364 174.062 320.724 173.955C319.728 173.791 318.782 173.829 318.112 174.94C317.949 175.214 317.982 176.363 318.267 176.363Z" fill="#A91B25"/>
<path d="M87.903 165.916C92.2492 165.916 165.385 166.56 169.981 166.365C170.311 166.353 170.489 165.702 170.161 165.484C167.263 163.564 163.976 163.95 160.966 162.592C159.194 161.793 158.106 160.243 156.877 158.465C155.816 156.927 154.583 155.749 153.072 155.14C151.733 154.604 150.287 154.534 148.928 154.966C147.444 155.44 146.156 156.576 144.74 157.293C141.227 159.068 137.812 157.381 135.304 153.901C133.235 151.034 131.201 148.328 128.389 146.784C126.034 145.49 123.42 145.221 121.063 146.648C118.38 148.275 116.539 151.545 114.02 153.512C111.032 155.849 107.46 155.296 104.162 156.001C100.854 156.708 98.3292 160.424 95.4361 162.565C94.4475 163.297 93.4357 163.91 92.2814 163.872C91.6348 163.85 91.0005 163.616 90.3605 163.509C89.3652 163.345 88.4188 163.382 87.7481 164.494C87.5842 164.766 87.6173 165.916 87.903 165.916Z" fill="#A91B25"/>
<path d="M281.925 244.888C282.009 245.215 397.196 244.888 395.742 244.888C395.079 244.888 396.747 243.562 396.099 243.135C392.349 240.645 388.247 240.575 384.164 240.072C381.782 239.783 379.333 239.317 377.191 237.808C375.02 236.287 373.667 233.646 372.125 231.206C367.365 223.641 359.791 219.699 352.456 221.234C344.266 222.95 337.809 231.3 329.605 232.835C324.676 233.759 320.015 231.206 315.199 230.307C311.233 229.571 307.93 230.603 304.382 232.954C301.784 234.677 299.383 236.13 296.446 236.4C294.19 236.614 291.926 236.268 289.665 236.237C286.047 236.193 282.476 238.29 279.689 241.572C279.324 242.005 278.164 244.888 281.925 244.888Z" fill="#A91B25"/>
<path d="M385.701 415.464H28.3002V424.982H385.701V415.464Z" fill="#A6A6A6"/>
<path d="M46.6884 415.464C47.2556 418.629 47.2598 421.818 46.6884 424.982C46.1171 421.818 46.1221 418.629 46.6884 415.464Z" fill="#263238"/>
<path d="M68.0633 415.464C68.6304 418.629 68.6346 421.818 68.0633 424.982C67.4919 421.818 67.4969 418.629 68.0633 415.464Z" fill="#263238"/>
<path d="M89.4381 415.464C90.0053 418.629 90.0094 421.818 89.4381 424.982C88.8668 421.818 88.8717 418.629 89.4381 415.464Z" fill="#263238"/>
<path d="M110.813 415.464C111.38 418.629 111.384 421.818 110.813 424.982C110.242 421.818 110.247 418.629 110.813 415.464Z" fill="#263238"/>
<path d="M132.188 415.464C132.755 418.629 132.759 421.818 132.188 424.982C131.616 421.818 131.621 418.629 132.188 415.464Z" fill="#263238"/>
<path d="M153.563 415.464C154.13 418.629 154.134 421.818 153.563 424.982C152.991 421.818 152.996 418.629 153.563 415.464Z" fill="#263238"/>
<path d="M174.937 415.464C175.505 418.629 175.509 421.818 174.937 424.982C174.366 421.818 174.371 418.629 174.937 415.464Z" fill="#263238"/>
<path d="M196.312 415.464C196.879 418.629 196.883 421.818 196.312 424.982C195.741 421.818 195.746 418.629 196.312 415.464Z" fill="#263238"/>
<path d="M217.688 415.464C218.255 418.629 218.259 421.818 217.688 424.982C217.116 421.818 217.121 418.629 217.688 415.464Z" fill="#263238"/>
<path d="M239.063 415.464C239.63 418.629 239.634 421.818 239.063 424.982C238.491 421.818 238.495 418.629 239.063 415.464Z" fill="#263238"/>
<path d="M260.437 415.464C261.005 418.629 261.009 421.818 260.437 424.982C259.866 421.818 259.87 418.629 260.437 415.464Z" fill="#263238"/>
<path d="M281.812 415.464C282.379 418.629 282.384 421.818 281.812 424.982C281.241 421.818 281.245 418.629 281.812 415.464Z" fill="#263238"/>
<path d="M303.187 415.464C303.754 418.629 303.758 421.818 303.187 424.982C302.616 421.818 302.62 418.629 303.187 415.464Z" fill="#263238"/>
<path d="M324.562 415.464C325.129 418.629 325.133 421.818 324.562 424.982C323.991 421.818 323.995 418.629 324.562 415.464Z" fill="#263238"/>
<path d="M345.937 415.464C346.504 418.629 346.508 421.818 345.937 424.982C345.365 421.818 345.37 418.629 345.937 415.464Z" fill="#263238"/>
<path d="M367.312 415.464C367.879 418.629 367.883 421.818 367.312 424.982C366.74 421.818 366.744 418.629 367.312 415.464Z" fill="#263238"/>
<path d="M27.6188 424.982C142.542 424.304 271.459 424.299 386.381 424.982C271.458 425.666 142.541 425.66 27.6188 424.982Z" fill="#263238"/>
<path d="M86.6063 450.974C163.737 450.295 250.263 450.29 327.394 450.974C250.263 451.657 163.737 451.653 86.6063 450.974Z" fill="#E7DCDC"/>
<path d="M34.4456 463.788C76.2191 463.066 123.086 463.061 164.859 463.788C123.086 464.515 76.2182 464.508 34.4456 463.788Z" fill="#E7DCDC"/>
<path d="M199.74 519.753C218.627 519.008 237.638 519.008 256.53 519.753C237.637 520.497 218.628 520.497 199.74 519.753Z" fill="#E7DCDC"/>
<path d="M312.488 439.797C331.375 439.053 350.386 439.053 369.278 439.797C350.386 440.542 331.377 440.542 312.488 439.797Z" fill="#263238"/>
<path d="M232.495 512.138C274.268 511.416 321.136 511.411 362.908 512.138C321.135 512.864 274.268 512.859 232.495 512.138Z" fill="#E7DCDC"/>
<path d="M320.906 492.226C320.906 496.641 269.909 500.221 207 500.221C144.091 500.221 93.0937 496.641 93.0937 492.226C93.0937 487.81 144.091 484.23 207 484.23C269.909 484.23 320.906 487.81 320.906 492.226Z" fill="#E7DCDC"/>
<path d="M116.689 415.572H69.5007C69.5007 415.572 69.61 406.173 74.2484 403.68C78.8869 401.187 81.6458 406.052 81.6458 406.052C81.6458 406.052 83.5378 388.772 92.1829 388.772C100.828 388.772 104.965 403.68 104.965 403.68C104.965 403.68 106.901 399.174 111.7 400.012C116.499 400.851 116.689 415.572 116.689 415.572Z" fill="#E7DCDC"/>
<path d="M379.554 415.572C379.554 415.572 378.107 406.54 375.219 405.148C372.33 403.756 370.572 407.809 370.572 407.809C370.572 407.809 369.892 399.179 365.796 396.596C361.699 394.014 358.624 399.303 358.624 399.303C358.624 399.303 355.481 388.352 349.865 388.352C344.249 388.352 341.416 404.375 341.416 404.375C341.416 404.375 338.102 399.599 334.705 402.296C331.307 404.993 331.307 415.571 331.307 415.571H379.554V415.572Z" fill="#E7DCDC"/>
<path d="M77.9579 415.572H34.4456C34.4456 415.572 35.8789 407.363 38.7645 406.782C41.6501 406.201 42.9922 410.008 42.9922 410.008C42.9922 410.008 42.8614 398.558 48.2509 396.608C53.6395 394.657 58.1587 404.773 58.1587 404.773C58.1587 404.773 61.5378 399.005 66.1423 399.375C70.7468 399.745 71.916 409.274 71.916 409.274C71.916 409.274 76.1056 405.966 77.9579 415.572Z" fill="#37474F"/>
<path d="M334.426 415.572H307.691C307.691 415.572 307.754 410.247 310.382 408.834C313.01 407.422 314.572 410.178 314.572 410.178C314.572 410.178 315.644 400.388 320.542 400.388C325.44 400.388 327.784 408.834 327.784 408.834C327.784 408.834 328.881 406.282 331.599 406.757C334.318 407.232 334.426 415.572 334.426 415.572Z" fill="#455A64"/>
<path d="M130.098 201.045C149.432 200.301 168.892 200.301 188.23 201.045C168.89 201.791 149.432 201.791 130.098 201.045Z" fill="white"/>
<path d="M130.722 219.916C145.142 219.171 159.667 219.171 174.09 219.916C159.665 220.66 145.143 220.66 130.722 219.916Z" fill="white"/>
<path d="M186.711 120.91C198.655 120.155 210.694 120.154 222.64 120.91C210.693 121.666 198.655 121.666 186.711 120.91Z" fill="white"/>
<path d="M84.7557 209.21C113.053 208.474 144.516 208.492 172.833 209.21C144.51 209.928 113.059 209.946 84.7557 209.21Z" fill="white"/>
<path d="M235.841 124.869C213.856 132.344 194.569 143.784 192.375 152.597C189.424 164.453 192.692 193.652 195.436 208.601C196.242 212.992 221.657 203.906 220.8 199.211C219.763 193.534 214.048 164.286 214.076 163.7C214.137 162.446 235.876 143.336 240.858 138.316C249.178 129.931 245.599 121.552 235.841 124.869Z" fill="#E7DCDC"/>
<path d="M240.857 138.316C235.872 143.332 214.138 162.445 214.075 163.695C214.056 164.315 219.766 193.538 220.803 199.205C221.661 203.91 196.241 212.995 195.439 208.604C194.366 202.746 193.204 194.709 192.373 186.38C191.087 173.446 190.577 159.811 192.373 152.59C194.573 143.784 213.859 132.344 235.842 124.867C236.135 124.773 236.428 124.678 236.704 124.604C245.805 122.065 248.929 130.187 240.857 138.316Z" fill="#E7DCDC"/>
<path d="M200.409 230.749C197.331 224.455 194.798 208.289 195.308 204.076C195.818 199.862 216.212 193.185 218.773 195.913C221.334 198.641 230.471 220.905 229.923 228.545C229.376 236.184 203.598 237.269 200.409 230.749Z" fill="#E7DCDC"/>
<path d="M229.002 216.567C226.317 214.843 226.336 220.064 226.336 220.064C226.336 220.064 224.956 212.557 221.674 212.213C218.51 211.892 218.699 218.198 218.708 218.65C218.633 218.254 217.229 211.401 213.905 211.509C210.449 211.625 211.451 217.912 211.518 218.318C211.359 217.973 209.197 213.47 206.685 214.321C202.369 215.786 207.661 227.504 206.651 232.135C206.651 232.135 200.591 230.741 200.408 230.75C200.408 230.75 205.272 242.036 210.016 243.509C212.516 244.286 213.551 241.32 213.551 241.32C213.551 241.32 214.819 245.191 217.438 245.217C218.782 245.225 219.989 242.355 219.989 242.355C219.989 242.355 221.101 245.398 223.432 245.226C225.292 245.097 226.213 242.237 226.213 242.237C226.213 242.237 228.294 244.496 230.162 243.538C233.935 241.615 234.75 220.266 229.002 216.567Z" fill="#E7DCDC"/>
<path d="M226.411 241.813C226.404 241.884 226.476 241.911 226.492 241.841C228.04 234.907 228.154 226.655 226.357 219.783C226.298 219.557 225.998 219.588 226.028 219.853C226.868 227.408 227.163 234.204 226.411 241.813Z" fill="black"/>
<path d="M220.018 242.462C220.009 242.545 220.111 242.564 220.13 242.479C221.697 235.322 221.633 226.023 218.866 218.429C218.771 218.168 218.491 218.062 218.583 218.372C220.137 223.609 220.721 235.616 220.018 242.462Z" fill="black"/>
<path d="M211.188 217.876C213.631 225.295 214.051 233.016 213.631 241.029C213.625 241.133 213.736 241.133 213.758 241.047C214.762 237.203 214.633 232.057 214.278 228.065C213.939 224.241 213.059 220.883 211.382 217.762C211.317 217.641 211.136 217.717 211.188 217.876Z" fill="black"/>
<path d="M226.336 220.064C225.965 218.656 225.515 217.285 224.963 216.006C224.41 214.748 223.722 213.515 222.816 212.86C222.368 212.542 221.868 212.423 221.394 212.581C220.912 212.747 220.439 213.056 220.091 213.513C219.374 214.411 219.115 215.894 219.167 217.19L219.297 220.453L218.328 217.448C217.905 216.137 217.319 214.832 216.605 213.783C215.893 212.734 214.975 211.941 214.015 211.974C213.011 211.981 212.191 212.72 211.941 214.001C211.654 215.253 211.745 216.793 211.985 218.142L212.654 221.908L211.108 218.657C210.689 217.776 210.157 216.905 209.577 216.191C208.993 215.483 208.316 214.895 207.614 214.768C206.927 214.639 206.179 215.014 205.826 215.766C205.445 216.55 205.38 217.68 205.398 218.757C205.453 220.955 205.862 223.167 206.185 225.385C206.354 226.495 206.525 227.61 206.655 228.737C206.769 229.853 206.898 231.032 206.652 232.134C206.81 231.011 206.59 229.89 206.424 228.795C206.232 227.697 206 226.611 205.768 225.52C205.305 223.339 204.856 221.138 204.699 218.806C204.652 217.649 204.63 216.39 205.127 215.198C205.647 213.972 206.748 213.415 207.724 213.589C208.719 213.76 209.523 214.485 210.194 215.265C210.868 216.074 211.428 216.96 211.93 217.978L211.053 218.492C210.761 216.902 210.62 215.295 210.965 213.602C211.138 212.771 211.531 211.932 212.113 211.406C212.695 210.874 213.355 210.668 214.011 210.663C215.376 210.662 216.51 211.764 217.291 212.953C218.092 214.177 218.678 215.536 219.14 217.025L218.3 217.283C218.277 215.631 218.659 213.95 219.621 212.817C220.099 212.264 220.675 211.94 221.277 211.777C221.898 211.61 222.562 211.82 223.08 212.237C224.125 213.104 224.72 214.487 225.225 215.821C225.719 217.179 226.084 218.607 226.336 220.064Z" fill="black"/>
<path d="M220.828 199.34C220.828 199.34 240.687 217.007 231.723 224.01C229.06 226.091 216.265 230.383 215.571 226.961C214.676 222.543 219.766 219.417 223.194 218.134C223.194 218.134 215.807 213.397 216.738 205.532C217.323 200.598 220.828 199.34 220.828 199.34Z" fill="#E7DCDC"/>
<path d="M232.441 223.364C231.501 224.397 230.371 225.072 229.252 225.695C228.125 226.315 226.957 226.79 225.78 227.201C223.413 227.985 221.055 228.666 218.577 228.896C217.954 228.941 217.32 228.952 216.641 228.749C216.306 228.646 215.942 228.463 215.632 228.138C215.475 227.98 215.352 227.82 215.209 227.548C215.095 227.302 215.009 227.056 214.964 226.807C214.75 225.81 214.906 224.815 215.19 223.976C215.497 223.147 215.928 222.458 216.396 221.858C217.347 220.67 218.46 219.855 219.593 219.194C220.726 218.515 221.901 218.033 223.078 217.59L223.019 218.647C222.166 218.056 221.409 217.371 220.675 216.602C219.947 215.835 219.273 214.975 218.676 214.024C218.084 213.068 217.593 211.999 217.237 210.859C216.874 209.722 216.681 208.498 216.666 207.282C216.805 208.483 217.086 209.638 217.503 210.69C217.917 211.747 218.47 212.688 219.076 213.55C219.683 214.412 220.361 215.183 221.088 215.863C221.809 216.537 222.59 217.153 223.369 217.619L224.358 218.21L223.309 218.676C222.18 219.178 221.046 219.671 219.99 220.361C218.934 221.031 217.894 221.793 217.088 222.837C216.299 223.839 215.678 225.238 215.932 226.438C216.086 227.519 217.408 227.671 218.537 227.615C219.707 227.57 220.898 227.357 222.085 227.145C223.274 226.928 224.462 226.692 225.636 226.373C227.966 225.684 230.35 224.999 232.441 223.364Z" fill="black"/>
<path opacity="0.2" d="M240.857 138.316C235.872 143.332 214.138 162.445 214.075 163.695C214.056 164.315 219.766 193.538 220.803 199.205C220.81 199.238 220.817 199.273 220.816 199.317C220.824 199.328 220.824 199.328 220.832 199.34C220.832 199.34 239.523 215.979 232.444 223.364C234.023 231.047 232.837 242.171 230.16 243.532C228.29 244.494 226.214 242.24 226.214 242.24C226.214 242.24 225.289 245.094 223.429 245.225C221.444 245.371 220.343 243.171 220.064 242.535C220.031 242.521 220.015 242.498 220.016 242.466L220.017 242.433C219.994 242.376 219.986 242.353 219.986 242.353C219.986 242.353 218.78 245.225 217.438 245.218C214.82 245.186 213.554 241.324 213.554 241.324C213.554 241.324 212.519 244.283 210.016 243.503C205.419 242.076 200.714 231.438 200.428 230.779C200.421 230.757 200.412 230.744 200.412 230.744C197.995 225.81 195.912 214.784 195.367 208.234C194.319 202.411 193.185 194.542 192.374 186.379L236.704 124.602C245.805 122.065 248.929 130.187 240.857 138.316Z" fill="black"/>
<path d="M55.4709 344.468C55.3483 341.581 70.8998 265.938 72.8597 263.564C73.5925 262.645 119.768 281.355 119.768 281.355L110.619 327.847L81.6555 317.816C81.6555 317.816 66.4535 342.514 64.092 344.823C61.7438 347.109 55.5843 347.354 55.4709 344.468Z" fill="#E7DCDC"/>
<path d="M55.475 344.465C55.3491 341.579 70.8989 265.932 72.8572 263.562C73.2107 263.122 87.6916 268.661 96.3575 272.024L86.9067 319.635L81.658 317.818C81.658 317.818 66.4584 342.51 64.0961 344.817C61.7471 347.113 55.5809 347.348 55.475 344.465Z" fill="#EBEBEB"/>
<path d="M55.4363 344.804C55.3187 341.931 70.5588 265.539 72.5055 263.164C73.2399 262.259 81.7998 265.448 91.1843 270.007L81.7443 318.494C81.7443 318.494 66.3708 342.849 64.0276 345.146C61.6877 347.427 55.5547 347.677 55.4363 344.804Z" fill="#A91B25"/>
<path d="M57.9095 344.551C60.733 332.011 71.2361 281.074 73.3153 268.391C73.3326 268.288 73.2805 268.269 73.2556 268.368C70.2541 280.716 60.0598 331.766 57.7546 344.495C57.7066 344.763 57.8507 344.816 57.9095 344.551Z" fill="black"/>
<path d="M67.0465 341.046C67.7519 338.085 67.2907 334.768 66.293 332.646C65.335 330.606 63.8098 328.603 61.835 327.972C61.7787 327.955 61.7481 328.092 61.8044 328.125C65.3491 330.204 67.6691 335.89 66.9289 341.003C66.9132 341.105 67.0225 341.148 67.0465 341.046Z" fill="black"/>
<path d="M79.9856 322.107C81.0753 317.073 80.9453 310.725 78.501 306.449C78.4066 306.283 78.2319 306.466 78.2584 306.636C79.0806 311.852 79.5004 316.676 79.5021 322.023C79.5029 322.4 79.907 322.468 79.9856 322.107Z" fill="black"/>
<path d="M78.0481 325.591C79.1377 320.556 79.0077 314.207 76.5635 309.932C76.4691 309.767 76.2944 309.949 76.3217 310.12C77.1439 315.335 77.5637 320.16 77.5654 325.507C77.5654 325.884 77.9703 325.951 78.0481 325.591Z" fill="black"/>
<path d="M76.1106 329.074C77.2002 324.039 77.0702 317.69 74.626 313.414C74.5316 313.248 74.3569 313.431 74.3842 313.603C75.2064 318.818 75.6262 323.642 75.6278 328.989C75.6278 329.367 76.0327 329.435 76.1106 329.074Z" fill="black"/>
<path d="M74.1731 332.557C75.2627 327.522 75.1327 321.175 72.6885 316.899C72.5941 316.733 72.4194 316.916 72.4467 317.087C73.2689 322.303 73.6887 327.127 73.6903 332.474C73.6912 332.851 74.0952 332.918 74.1731 332.557Z" fill="black"/>
<path d="M81.6168 274.9C82.7685 269.226 76.1801 266.822 75.0267 272.506C73.8758 278.18 80.4634 280.584 81.6168 274.9Z" fill="black"/>
<path d="M88.9379 331.28C91.0527 329.299 90.1592 325.5 88.846 323.328C87.1528 320.548 84.7077 318.007 82.1823 316.344C81.8271 316.09 81.4644 315.87 81.1117 315.671C80.9511 315.596 80.7929 315.503 80.648 315.415C80.6323 315.427 80.6356 315.411 80.6356 315.411L80.5089 315.365C80.3731 315.299 80.2506 315.237 80.1272 315.175C80.0519 315.148 79.9964 315.219 79.9922 315.308C79.8051 315.296 79.6006 315.44 79.5244 315.685C79.4756 315.794 79.4615 315.934 79.4971 316.091C79.8034 317.27 80.0999 318.499 80.3963 319.729C80.4352 319.941 80.4899 320.143 80.5412 320.36C81.2698 323.357 82.0821 326.347 83.493 328.844C84.7019 330.998 86.9416 333.14 88.9379 331.28ZM82.1922 322.129C81.9057 321.12 81.6358 320.1 81.3617 319.096C81.1274 318.233 80.8898 317.388 80.6397 316.537C80.6099 316.417 80.566 316.293 80.5329 316.19C80.499 316.087 80.4692 315.967 80.4352 315.865C80.5039 315.926 80.5735 315.987 80.6422 316.048C80.6513 316.069 80.6513 316.069 80.6646 316.073C81.11 316.487 81.5431 316.894 81.9927 317.291C83.1825 318.387 84.3558 319.495 85.4545 320.776C86.2031 321.641 86.969 322.55 87.6239 323.545C88.6399 325.104 90.7753 331.231 86.5632 330.215C84.2515 329.659 82.8894 324.606 82.1922 322.129Z" fill="black"/>
<path d="M80.1222 316.35C80.1471 316.431 80.2067 316.471 80.2829 316.426C80.3789 316.351 80.4625 316.273 80.5329 316.189C80.59 316.173 80.6257 316.131 80.6447 316.102C80.6604 316.09 80.6737 316.094 80.6637 316.073C80.8368 315.954 80.9709 315.821 81.11 315.671C81.6557 315.177 82.1732 314.62 82.6559 314.031C84.6158 311.742 86.3488 308.827 87.4343 305.899C88.3683 303.388 88.6034 299.43 86.2229 298.127C86.1377 298.078 86.0491 298.047 85.9605 298.015C83.8259 297.108 82.0937 299.75 81.2972 302.111C80.4774 304.591 80.1371 307.315 79.9169 310.045C79.7703 311.932 79.6751 313.836 79.5228 315.684C79.5194 315.701 79.5194 315.701 79.5161 315.719C79.4772 316.192 79.8357 316.429 80.1222 316.35ZM81.1456 309.051C81.4156 306.412 81.9107 301.079 84.0801 299.843C84.7507 299.467 85.2633 299.343 85.669 299.415C87.6678 299.713 86.8174 304.518 86.2022 306.038C85.7377 307.214 85.1374 308.322 84.5562 309.401C84.1082 310.22 83.6296 310.991 83.1254 311.753C82.3206 313.005 81.4744 314.19 80.6472 315.416L80.6314 315.429C80.5768 315.499 80.5313 315.591 80.4758 315.663C80.4957 315.561 80.5006 315.473 80.5081 315.366C80.5462 315.108 80.5809 314.867 80.6058 314.604C80.8128 312.756 80.9527 310.903 81.1456 309.051Z" fill="black"/>
<path d="M248.233 201.659C248.233 201.659 248.427 240.325 242.77 248.68C242.77 248.68 207.206 337.218 187.101 342.446C170.075 346.874 91.1852 323.095 91.1852 323.095L100.754 273.04C100.754 273.04 132.449 276.867 149.949 278.975C161.254 280.336 173.856 284.041 174.217 283.326C183.684 264.514 197.336 243.419 196.809 241.377C196.163 238.876 196.394 230.12 197.302 225.403C198.784 217.698 202.135 201.659 202.135 201.659H248.233Z" fill="black"/>
<path d="M210.163 231.095C210.163 227.749 213.972 210.165 215.86 201.656H215.007C213.069 210.331 209.335 227.605 209.335 231.095C209.335 235.261 210.088 241.577 210.254 242.873C198.364 265.177 180.438 298.461 178.898 300.412C178.177 300.412 173.814 299.547 169.235 298.606C161.824 297.076 151.673 294.993 146.862 294.694C140.71 294.306 111.349 290.838 97.6626 289.21L97.4556 290.284C111.093 291.924 140.644 295.403 146.821 295.791C151.59 296.09 161.717 298.173 169.102 299.702C175.296 300.977 178.012 301.508 178.898 301.508C179.03 301.508 179.121 301.497 179.179 301.475C180.115 301.099 199.531 264.889 211.024 243.338L211.123 243.15L211.099 242.917C211.09 242.851 210.163 235.56 210.163 231.095Z" fill="#A91B25"/>
<path d="M213.79 231.217C213.79 227.815 217.342 209.943 219.031 201.656H218.161C216.447 210.11 212.962 227.682 212.962 231.217C212.962 235.394 213.765 241.843 213.93 243.161C201.154 267.172 181.912 302.982 180.314 305.043C179.577 305.065 175.23 304.179 170.651 303.226C163.24 301.708 153.089 299.625 148.287 299.326C141.77 298.916 109.238 295.049 96.8346 293.553L96.6193 294.65C108.915 296.124 141.687 300.013 148.245 300.423C153.006 300.722 163.133 302.805 170.518 304.323C176.712 305.597 179.428 306.14 180.314 306.14C180.446 306.14 180.537 306.129 180.595 306.107C181.539 305.73 202.371 266.795 214.709 243.615L214.808 243.427L214.775 243.206C214.767 243.128 213.79 235.682 213.79 231.217Z" fill="#A91B25"/>
<path opacity="0.2" d="M242.77 248.679C242.77 248.679 232.13 275.171 219.196 300.013C214.684 283.315 205.369 248.491 198.389 219.882C200.003 211.838 202.131 201.656 202.131 201.656H248.234C248.234 201.656 248.425 240.325 242.77 248.679Z" fill="black"/>
<path d="M357.911 464.716C356.216 466.51 301.02 492.959 298.443 492.177C297.459 491.903 282.36 430.585 282.36 430.585L316.048 413.88L326.562 451.36C326.562 451.36 350.402 453.811 353.171 455.07C355.921 456.33 359.61 462.934 357.911 464.716Z" fill="#E7DCDC"/>
<path d="M357.907 464.714C356.215 466.511 301.018 492.965 298.443 492.181C297.97 492.047 293.034 473.006 290.109 461.584L324.655 444.567L326.562 451.358C326.562 451.358 350.398 453.809 353.167 455.069C355.922 456.323 359.61 462.941 357.907 464.714Z" fill="#EBEBEB"/>
<path d="M358.137 464.561C356.447 466.342 300.972 493.562 298.402 492.796C297.427 492.513 294.456 481.306 291.85 468.409L326.927 450.877C326.927 450.877 350.656 453.713 353.408 454.959C356.148 456.209 359.826 462.781 358.137 464.561Z" fill="#A91B25"/>
<path d="M356.561 461.999C347.269 466.115 310.083 483.892 301.133 488.905C301.06 488.946 301.078 489.014 301.154 488.983C310.43 485.171 347.507 466.994 356.615 462.2C356.807 462.099 356.757 461.911 356.561 461.999Z" fill="black"/>
<path d="M349.165 454.008C346.949 454.937 345.186 457.349 344.461 459.661C343.765 461.882 343.416 464.703 344.166 467.228C344.187 467.3 344.289 467.254 344.277 467.174C343.51 462.098 345.654 456.289 349.206 454.16C349.279 454.119 349.241 453.977 349.165 454.008Z" fill="black"/>
<path d="M330.147 450.726C326.441 452.425 322.634 456.218 321.425 461.351C321.377 461.551 321.589 461.636 321.679 461.509C324.395 457.611 327.105 454.378 330.373 451.303C330.604 451.086 330.413 450.604 330.147 450.726Z" fill="black"/>
<path d="M333.391 450.844C329.686 452.545 325.878 456.337 324.669 461.47C324.622 461.669 324.834 461.755 324.923 461.627C327.64 457.729 330.349 454.496 333.617 451.421C333.847 451.204 333.656 450.723 333.391 450.844Z" fill="black"/>
<path d="M336.634 450.964C332.93 452.665 329.122 456.456 327.912 461.59C327.865 461.789 328.078 461.875 328.166 461.747C330.883 457.849 333.591 454.616 336.86 451.541C337.091 451.324 336.9 450.842 336.634 450.964Z" fill="black"/>
<path d="M339.878 451.084C336.174 452.784 332.366 456.576 331.156 461.709C331.109 461.908 331.321 461.994 331.41 461.867C334.127 457.969 336.835 454.736 340.104 451.661C340.335 451.443 340.143 450.962 339.878 451.084Z" fill="black"/>
<path d="M300.341 476.072C296.21 478.073 298.526 486.669 302.665 484.665C306.796 482.665 304.48 474.069 300.341 476.072Z" fill="black"/>
<path d="M330.61 435.649C328.184 434.471 326.374 437.634 325.801 440.32C325.074 443.772 324.925 447.91 325.36 451.632C325.409 452.167 325.483 452.69 325.565 453.191C325.611 453.41 325.645 453.636 325.675 453.846C325.691 453.856 325.679 453.862 325.679 453.862L325.724 454.026C325.761 454.214 325.794 454.383 325.826 454.554C325.854 454.652 325.928 454.671 325.985 454.625C326.085 454.836 326.291 454.978 326.485 454.921C326.58 454.912 326.673 454.846 326.749 454.717C327.293 453.704 327.875 452.672 328.456 451.641C328.564 451.476 328.656 451.301 328.759 451.119C330.172 448.598 331.535 445.991 332.251 443.01C332.873 440.45 332.895 436.767 330.61 435.649ZM328.892 448.297C328.439 449.19 327.971 450.073 327.514 450.949C327.12 451.702 326.74 452.448 326.364 453.211C326.308 453.313 326.257 453.431 326.213 453.527C326.17 453.623 326.114 453.724 326.071 453.82C326.068 453.71 326.066 453.599 326.063 453.488C326.071 453.466 326.071 453.466 326.066 453.449C326.063 452.723 326.064 452.014 326.047 451.295C326.033 449.363 326.037 447.44 326.188 445.501C326.287 444.185 326.402 442.823 326.634 441.535C327.004 439.526 329.523 433.666 331.323 438.862C332.313 441.713 330.006 446.109 328.892 448.297Z" fill="black"/>
<path d="M326.548 453.884C326.584 453.81 326.574 453.722 326.502 453.664C326.401 453.602 326.305 453.556 326.213 453.526C326.171 453.472 326.124 453.457 326.095 453.453C326.079 453.443 326.074 453.426 326.066 453.448C325.894 453.327 325.735 453.256 325.564 453.191C324.949 452.877 324.309 452.631 323.672 452.441C321.146 451.611 318.367 451.388 315.952 451.882C313.88 452.302 311.325 454.32 311.896 457.676C311.915 457.797 311.947 457.912 311.978 458.027C312.65 460.886 315.262 461.265 317.163 460.78C319.15 460.252 321.011 459.06 322.807 457.732C324.045 456.808 325.265 455.817 326.483 454.922C326.495 454.916 326.495 454.916 326.508 454.91C326.822 454.681 326.761 454.153 326.548 453.884ZM321.496 456.959C319.726 458.181 316.182 460.704 314.179 459.039C313.563 458.521 313.192 458.032 313.003 457.545C312.036 455.185 315.464 453.355 316.747 453.154C317.733 452.988 318.755 453.008 319.75 453.024C320.507 453.044 321.254 453.125 322.01 453.239C323.239 453.4 324.448 453.646 325.674 453.847L325.691 453.857C325.765 453.876 325.848 453.872 325.923 453.892C325.849 453.929 325.792 453.975 325.724 454.028C325.544 454.134 325.377 454.236 325.201 454.359C323.953 455.194 322.74 456.106 321.496 456.959Z" fill="black"/>
<path d="M325.801 440.321L287.366 457.64C287.366 457.64 262.695 385.443 257.243 346.107C255.633 334.489 224.588 272 212.261 254.04C206.672 245.896 203.811 237.623 202.665 229.708C201.622 222.514 202.133 201.619 202.133 201.619L253.93 201.66L254.153 223.289C255.921 227.096 280.871 276.291 295.112 321.332C299.638 335.645 325.801 440.321 325.801 440.321Z" fill="black"/>
<path d="M244.841 213.027C248.303 215.858 251.416 219.28 254.154 223.287C250.689 220.461 247.582 217.031 244.841 213.027Z" fill="#37474F"/>
<path d="M301.988 451.045L301.193 451.411C296.225 436.065 281.23 389.363 277.769 373.119C276.767 368.444 275.525 361.762 274.316 355.314C272.437 345.187 270.483 334.727 269.613 332.711C268.578 330.306 260.63 313.653 252.225 296.025C239.714 269.798 231.501 252.536 231.26 251.66C231.153 251.284 230.01 249.267 228.81 247.14C225.208 240.802 219.188 230.199 218.625 225.179C217.656 216.526 217.632 206.565 217.698 201.634H218.526C218.468 206.521 218.484 216.426 219.445 225.013C219.975 229.755 226.152 240.625 229.464 246.475C231.103 249.356 231.898 250.763 232.039 251.284C232.395 252.381 243.3 275.25 252.921 295.426C261.333 313.066 269.282 329.73 270.334 332.157C271.261 334.306 273.141 344.378 275.128 355.037C276.328 361.485 277.57 368.156 278.564 372.809C282.025 389.03 297.037 435.799 301.988 451.045Z" fill="#A91B25"/>
<path d="M298.37 452.674L297.583 453.028C292.681 437.904 277.57 390.847 274.085 374.516C273.083 369.84 271.841 363.159 270.632 356.699C268.752 346.583 266.798 336.134 265.929 334.118C264.894 331.713 256.945 315.06 248.541 297.421C236.03 271.195 227.816 253.932 227.576 253.057C227.468 252.68 226.334 250.674 225.125 248.547C221.523 242.209 215.504 231.595 214.941 226.575C213.872 217.013 213.955 205.823 214.03 201.634H214.866C214.783 205.756 214.7 216.903 215.76 226.409C216.29 231.151 222.467 242.032 225.779 247.871C227.418 250.763 228.213 252.17 228.354 252.68C228.702 253.777 239.615 276.646 249.236 296.823C257.649 314.473 265.598 331.137 266.649 333.553C267.577 335.713 269.448 345.774 271.435 356.422C272.636 362.882 273.878 369.552 274.879 374.216C278.357 390.515 293.501 437.672 298.37 452.674Z" fill="#A91B25"/>
<path d="M251.361 122.344C252.999 123.243 254.956 122.92 256.304 121.323C257.627 119.751 258.118 117.233 257.681 114.977C259.478 115.782 261.496 115.416 262.695 113.162C263.933 110.83 263.494 107.896 262.016 105.988C262.006 105.974 261.986 105.996 261.996 106.011C263.199 107.942 263.589 110.749 262.424 112.88C261.428 114.702 259.969 115.1 258.507 114.754C259.888 114.42 261.203 113.515 261.98 111.901C262.831 110.132 262.852 107.743 261.94 106.037C263.421 104.693 264.652 102.569 264.712 100.097C264.763 98.017 263.925 95.9649 262.513 95.0985C263.76 93.4066 264.219 90.7485 263.505 88.5258C262.837 86.4373 261.28 85.0766 259.618 84.9259C261.355 82.1914 260.371 77.8846 257.747 76.9373C258.243 75.8282 258.133 74.4022 257.574 73.3285C256.933 72.0887 255.83 71.5391 254.748 71.2809C254.686 69.9502 254.169 68.6594 253.271 67.9979C252.071 67.1148 250.646 67.6145 249.833 68.9807C248.588 67.2644 247.057 65.6346 245.215 65.465C243.7 65.3265 242.082 66.2473 241.409 68.1198C238.875 65.4495 235.194 66.3226 233.494 70.0056C232.255 69.3275 230.826 69.6776 229.766 70.7823C228.699 71.8948 228.232 73.0072 228.048 73.5601C226.898 73.067 225.627 73.6797 224.922 74.9927C224.227 76.2846 224.208 77.7771 224.466 79.2308C224.366 79.6142 224.222 79.9543 223.964 80.3156C222.809 81.9421 222.317 84.0839 222.657 86.2788C220.906 87.5032 220.378 90.7729 221.588 92.8559C220.169 94.7661 220.23 98.1089 221.702 99.9338C220.714 101.59 220.269 103.755 220.568 105.856C220.795 107.466 221.566 109.13 222.803 109.449C222.27 110.524 222.736 112.004 223.485 112.754C223.769 113.039 224.09 113.255 224.413 113.449C224.797 113.676 225.334 113.829 225.639 114.231C225.959 114.644 225.994 115.329 226.143 115.857C226.251 116.235 226.392 116.599 226.556 116.94C227.812 119.509 230.418 120.594 232.519 119.412C233.105 121.447 234.773 122.282 236.319 122.374C236.83 122.404 237.319 122.323 237.822 122.236C238.287 122.154 238.695 122.119 239.137 122.402C239.404 122.574 239.639 122.824 239.906 122.999C240.811 123.59 241.752 123.292 242.65 122.862C244.379 128.217 249.645 127.165 251.361 122.344ZM224.944 75.8869C225.541 74.3246 226.712 73.5601 227.995 73.7307C227.961 73.8482 227.942 73.9268 227.942 73.9268C227.942 73.9268 227.535 74.0166 227.341 74.0886C226.99 74.226 226.654 74.4365 226.346 74.7046C225.705 75.2609 225.184 76.0763 224.886 77.017C224.752 77.4403 224.677 77.8824 224.625 78.3333C224.618 78.3943 224.608 78.443 224.602 78.5006C224.559 77.6131 224.617 76.74 224.944 75.8869ZM253.316 69.3508C252.355 68.4034 251.002 68.3359 250.023 69.24C250.001 69.209 249.977 69.179 249.956 69.148C250.862 68.0323 251.92 67.3508 253.158 68.2993C254.023 68.9619 254.348 70.0433 254.397 71.2067C254.391 71.2056 254.386 71.2045 254.379 71.2034C254.159 70.4809 253.812 69.8372 253.316 69.3508ZM242.833 122.774C242.847 122.767 242.861 122.761 242.874 122.754C244.695 125.795 247.878 126.151 250.039 123.983C247.78 126.601 244.692 127.11 242.833 122.774Z" fill="black"/>
<path d="M195.189 215.059C195.3 215.314 253.87 220.666 254.564 219.97C255.534 218.987 256.384 150.343 249.052 129.708C247.219 124.548 239.207 119.657 232.221 127.659C211.944 150.886 194.798 214.142 195.189 215.059Z" fill="#A91B25"/>
<path d="M245.603 140.142C242.629 140.63 236.966 135.163 235.358 129.314C235.25 128.911 236.111 125.089 236.993 120.378C237.521 117.516 238.057 114.312 238.389 111.343C238.454 110.732 251.804 118.653 251.804 118.653C251.804 118.653 249.74 124.606 249.185 129.789C249.142 130.222 249.129 130.632 249.144 131.027C249.143 131.083 249.148 131.154 249.142 131.233C249.166 133.604 248.786 139.619 245.603 140.142Z" fill="#E7DCDC"/>
<path d="M251.804 118.656C251.804 118.656 249.741 124.61 249.184 129.791C249.16 130.033 249.153 130.277 249.146 130.51C242.69 129.989 239.348 122.476 237.688 116.331C237.963 114.66 238.206 112.966 238.388 111.346C238.456 110.728 251.804 118.656 251.804 118.656Z" fill="black"/>
<path d="M237.262 85.9997C234.975 92.3807 235.419 112.249 238.486 117.284C242.933 124.582 251.307 126.897 256.216 119.41C260.976 112.153 260.055 86.2723 256.527 81.5478C251.331 74.5873 240.639 76.5728 237.262 85.9997Z" fill="#E7DCDC"/>
<path d="M249.623 100.918C249.612 100.868 249.548 100.989 249.553 101.043C249.653 102.376 249.6 103.925 248.719 104.451C248.691 104.468 248.698 104.534 248.731 104.525C249.822 104.216 249.878 102.159 249.623 100.918Z" fill="black"/>
<path d="M248.66 99.6048C247.046 99.5893 247.141 103.909 248.637 103.924C250.108 103.938 250.013 99.6181 248.66 99.6048Z" fill="black"/>
<path d="M255.532 100.41C255.537 100.358 255.611 100.47 255.611 100.525C255.609 101.865 255.775 103.4 256.689 103.808C256.717 103.821 256.716 103.888 256.682 103.884C255.574 103.719 255.369 101.679 255.532 100.41Z" fill="black"/>
<path d="M256.393 98.9777C257.998 98.7505 258.219 103.063 256.733 103.272C255.27 103.479 255.049 99.1671 256.393 98.9777Z" fill="black"/>
<path d="M247.68 97.5218C248.128 97.4288 248.53 97.2415 248.966 97.0875C249.458 96.9136 249.864 96.8437 250.215 96.3108C250.403 96.0249 250.371 95.4665 250.181 95.1962C249.738 94.5657 249.096 94.5779 248.497 94.7552C247.847 94.9469 247.383 95.3169 246.971 96.0139C246.571 96.6875 247.089 97.6459 247.68 97.5218Z" fill="black"/>
<path d="M257.479 96.5313C257.029 96.4515 256.625 96.2775 256.186 96.1368C255.691 95.9784 255.285 95.9196 254.925 95.3978C254.732 95.1175 254.755 94.559 254.94 94.282C255.373 93.6383 256.015 93.6305 256.616 93.7901C257.269 93.9618 257.74 94.3186 258.164 95.0022C258.574 95.6637 258.072 96.6365 257.479 96.5313Z" fill="black"/>
<path d="M248.972 113.375C249.219 113.679 249.467 114.101 249.831 114.127C250.179 114.153 250.583 113.927 250.898 113.749C250.93 113.731 250.963 113.775 250.943 113.815C250.694 114.339 250.155 114.683 249.689 114.592C249.234 114.504 248.999 113.989 248.876 113.439C248.86 113.363 248.937 113.331 248.972 113.375Z" fill="black"/>
<path d="M249.935 109.327C250.521 110.467 251.358 111.069 252.253 111.265C252.653 111.356 253.071 111.358 253.479 111.292C253.559 111.286 253.64 111.271 253.712 111.247C253.785 111.232 253.851 111.218 253.931 111.193C254.047 111.166 254.108 111.034 254.125 110.885V110.875C254.123 110.827 254.121 110.787 254.112 110.739C254.112 110.739 254.112 110.739 254.112 110.729L254.108 110.612C254.107 109.58 253.997 108.016 253.997 108.016C254.283 108.193 255.736 109 255.702 108.462C255.405 104.014 255.074 99.0663 254.077 94.7229C254.049 94.5778 253.882 94.6177 253.895 94.7639C254.054 99.0541 254.776 103.279 254.987 107.586C254.524 107.371 253.767 106.97 253.365 106.996C253.256 107.043 253.616 110.014 253.589 110.478C253.589 110.478 253.59 110.498 253.583 110.527C252.294 110.8 251.308 110.316 250.026 109.202C249.95 109.129 249.873 109.223 249.935 109.327Z" fill="black"/>
<path d="M253.014 110.787C253.014 110.787 252.358 112.047 251.433 112.529C251.092 112.707 250.723 112.788 250.331 112.664C249.526 112.414 249.485 111.435 249.612 110.59C249.716 109.895 249.942 109.291 249.942 109.291C249.942 109.291 251.141 110.706 253.014 110.787Z" fill="black"/>
<path d="M251.433 112.529C251.092 112.707 250.723 112.788 250.331 112.664C249.526 112.414 249.485 111.435 249.612 110.59C250.472 110.674 251.336 111.418 251.433 112.529Z" fill="#FF99BA"/>
<path d="M259.322 88.8871C258.943 87.2107 258.373 86.8296 258.373 86.8296C258.373 86.8296 258.443 84.8751 257.204 82.3001C255.907 79.6065 254.423 79.1788 254.423 79.1788C254.423 79.1788 253.224 77.2155 250.389 76.3457C249.738 76.1462 247.75 75.9945 247.125 76.2914C246.405 76.6349 245.668 76.0931 244.932 76.0332C244.253 75.9745 243.564 76.1163 242.919 76.4365C242.387 76.698 241.877 77.0814 241.419 77.5767C241.153 77.8681 240.918 78.2016 240.677 78.5429C240.278 79.1046 239.908 79.2885 239.384 79.4614C238.262 79.8392 237.311 80.8564 236.705 82.3776C236.353 83.2596 236.182 84.2125 236.119 85.2418C236.045 86.4861 235.048 87.0179 234.65 88.0728C234.004 89.7769 234.254 91.881 235.149 93.2227C233.893 94.3252 233.359 96.9113 233.948 99.0032C234.403 100.624 235.439 101.39 236.495 101.841C236.693 101.925 236.894 101.977 237.094 102.004C239.264 102.609 241.518 99.5117 240.833 95.9938C240.834 95.9839 240.835 95.9761 240.836 95.9661C240.836 95.9661 242.491 95.5385 243.918 93.287C244.791 91.9098 245.122 89.9708 245.191 88.0661C247.862 90.5292 251.734 88.4583 252.368 83.7704C253.112 84.9626 255.296 87.0224 256.345 86.6468C256.662 90.9037 258.687 92.5945 259.24 92.6011C259.318 92.6023 259.758 90.8128 259.322 88.8871ZM239.323 100.886C239.983 100.039 240.502 98.8148 240.809 96.1767C241.051 98.2087 240.358 99.9151 239.323 100.886ZM248.381 88.4417C249.972 87.9409 251.376 86.3077 252.109 83.8723C251.522 86.7299 250.074 88.1381 248.381 88.4417Z" fill="black"/>
<path d="M238.559 102.383C238.559 102.383 235.9 95.5362 233.62 96.7251C231.341 97.914 232.911 107.435 235.284 109.118C237.657 110.801 238.864 107.892 238.864 107.892L238.559 102.383Z" fill="#E7DCDC"/>
<path d="M234.12 99.4396C234.081 99.4285 234.066 99.5017 234.099 99.526C235.756 100.783 236.463 103.116 236.887 105.482C236.451 104.523 235.79 103.924 234.841 104.6C234.791 104.635 234.825 104.738 234.876 104.733C235.613 104.653 236.114 104.911 236.523 105.764C236.812 106.369 236.979 107.097 237.163 107.77C237.224 107.993 237.518 107.931 237.482 107.68C237.479 107.661 237.476 107.642 237.473 107.623C237.81 104.646 236.487 100.162 234.12 99.4396Z" fill="black"/>
<path d="M234.204 130.787C237.443 132.613 238.38 139.425 237.089 147.322C235.555 156.71 227.005 166.837 222.974 164.36C217.46 160.971 222.152 146.737 225.013 139.757C227.753 133.073 231.923 129.501 234.204 130.787Z" fill="#E7DCDC"/>
<path d="M229.055 142.859C231.761 171.814 238.827 198.951 244.951 201.896C253.739 206.122 271.556 205.962 282.897 203.391C286.229 202.636 281.313 168.053 277.75 168.855C273.444 169.824 255.245 173.825 254.81 173.744C253.88 173.573 241.698 145.443 238.826 138.21C233.559 124.945 227.937 130.885 229.055 142.859Z" fill="#E7DCDC"/>
<path d="M311.06 164.258C312.416 167.535 310.419 170.346 310.419 170.346C310.419 170.346 312.404 171.721 313.082 174.449C313.858 177.572 310.539 180.57 310.539 180.57C310.539 180.57 312.333 182.519 312.832 185.495C313.351 188.584 310.324 192.248 310.324 192.248C310.324 192.248 311.25 195.292 310.303 198.279C308.682 203.386 302.429 204.713 298.459 205.611C294.49 206.509 282.603 204.078 280.303 203.923L275.779 169.882C275.779 169.882 292.723 159.081 297.502 158.913C301.527 158.771 309.537 160.578 311.06 164.258Z" fill="#E7DCDC"/>
<path d="M310.17 169.841C305.863 168.618 301.519 169.165 297.162 169.382C297.065 169.387 297.071 169.591 297.169 169.584C301.502 169.301 305.82 170.172 310.153 170.12C310.271 170.118 310.286 169.874 310.17 169.841Z" fill="black"/>
<path d="M310.398 180.143C309.418 179.906 308.381 180.102 307.397 180.216C306.337 180.341 305.279 180.489 304.223 180.66C302.108 181.001 299.999 181.406 297.901 181.895C297.808 181.916 297.81 182.112 297.909 182.097C300.017 181.762 302.128 181.469 304.244 181.252C305.303 181.144 306.364 181.049 307.424 180.962C308.41 180.881 309.456 180.907 310.411 180.532C310.552 180.478 310.546 180.179 310.398 180.143Z" fill="black"/>
<path d="M310.234 192.259C309.388 192.007 308.382 192.358 307.535 192.519C306.574 192.701 305.612 192.876 304.649 193.044C302.725 193.38 300.8 193.714 298.868 193.96C298.772 193.972 298.779 194.174 298.876 194.162C300.84 193.926 302.806 193.724 304.769 193.465C305.732 193.337 306.695 193.202 307.658 193.06C308.476 192.94 309.51 192.914 310.251 192.388C310.293 192.358 310.277 192.271 310.234 192.259Z" fill="black"/>
<path d="M229.527 151.491C229.659 151.891 229.783 152.295 229.909 152.697C229.634 150.645 229.424 148.592 229.274 146.519C229.271 146.473 229.325 146.464 229.334 146.509C229.759 148.811 230.153 151.11 230.484 153.435C230.64 154.534 231.101 158.613 231.215 159.955C231.227 160.101 231.016 160.269 230.994 160.125C230.812 158.945 230.219 154.975 230.073 153.947C229.96 153.662 229.849 153.376 229.756 153.077C229.605 152.589 229.459 152.101 229.335 151.601C229.087 150.604 228.866 149.596 228.639 148.591C228.636 148.576 228.652 148.571 228.655 148.585C228.912 149.571 229.212 150.535 229.527 151.491Z" fill="black"/>
</svg>