<svg xmlns="http://www.w3.org/2000/svg" fill="none" viewBox="0 2.6 392.67 463.44">
<path d="M388.78 291.168C394.206 286.318 394.167 273.745 387.272 271.049C392.031 265.07 390.591 252.193 383.693 251.398C385.381 246.114 384.551 238.882 379.14 237.547C380.854 231.069 376.074 226.578 371.281 228.904C371.072 222.076 363.361 221.683 361.625 226.491C361.718 223.847 358.562 218.952 356.538 218.941C360.035 215.509 359.068 208.631 356.069 207.716C360.149 203.835 357.964 194.977 353.091 195.062C356.359 188.603 349.388 181.855 345.057 183.845C347.51 176.585 336.05 170.809 333.569 178.503C329.182 169.444 314.146 174.776 316.156 186.554C312.567 185.99 310.65 191.466 313.493 194.555C310.994 192.575 307.729 193.774 306.432 196.482C307.011 194.392 305.85 192.239 304.118 191.937C308.887 189.51 305.544 180.625 301.143 180.973C305.303 174.273 296.865 166.487 292.38 171.802C290.295 165.653 282.844 166.947 283.335 174.158C281.68 170.402 278.434 170.667 275.768 172.675C272.089 175.446 272.581 180.383 274.605 184.382C273.078 182.095 268.42 180.835 267.711 184.62C266.648 182.608 263.909 182.108 262.456 183.869C261.079 177.664 252.225 176.855 250.549 184.5C250.8 183.354 246.493 184.683 246.172 184.952C244.812 186.086 243.972 188.405 244.519 190.4C243.228 189.657 241.596 189.972 240.543 191.168C239.491 192.364 239.08 194.37 239.544 196.054C238.383 195.224 237.011 194.72 235.704 195.068C234.397 195.417 233.214 196.78 233.122 198.453C231.777 196.273 228.942 196.233 227.203 197.92C225.465 199.606 224.732 202.532 224.786 205.287C223.441 203.328 220.283 201.853 219.061 204.869C217.382 202.802 214.289 203.002 212.788 205.275C211.914 202.487 208.552 202.027 207.161 204.491C206.763 202.82 205.361 201.699 203.97 201.692C202.58 201.686 201.259 202.662 200.401 204.035C198.819 199.605 193.955 202.104 193.756 205.161C193.01 203.816 191.944 202.233 190.562 202.16C189.214 202.09 187.865 203.072 187.247 204.576C186.362 202.753 184.507 201.764 182.846 202.227C181.185 202.691 179.841 204.575 179.657 206.696C179.254 204.674 177.846 203.022 176.208 202.668C174.57 202.314 172.796 203.287 171.901 205.045C171.653 203.158 170.287 201.685 168.787 201.337C167.288 200.99 165.718 201.635 164.484 202.756C164.557 200.729 164.114 198.547 162.88 197.232C161.648 195.917 159.521 195.875 158.556 197.505C158.143 195.252 156.934 193.922 155.44 192.766C154.669 192.169 154.107 191.684 153.142 191.602C152.858 191.578 150.844 191.671 150.817 192.187C151.036 187.947 148.783 181.415 144.508 184.502C142.833 176.856 133.979 177.665 132.602 183.87C131.149 182.109 128.41 182.609 127.347 184.621C126.638 180.837 121.981 182.096 120.453 184.383C122.476 180.385 122.969 175.448 119.29 172.676C116.624 170.667 113.378 170.402 111.723 174.159C112.214 166.949 104.763 165.654 102.677 171.803C98.1929 166.489 89.7557 174.275 93.9156 180.974C89.5143 180.626 86.1721 189.511 90.9407 191.938C89.2084 192.24 88.0481 194.392 88.627 196.483C87.3298 193.774 84.0658 192.576 81.566 194.557C84.4101 191.466 82.4916 185.991 78.9029 186.555C80.9132 174.778 65.8767 169.446 61.4898 178.504C59.0095 170.811 47.549 176.586 50.0021 183.846C45.6713 181.856 38.7005 188.604 41.9688 195.063C37.0957 194.978 34.9103 203.836 38.9903 207.717C35.9907 208.632 35.0242 215.51 38.5211 218.942C36.4973 218.953 33.3412 223.848 33.4339 226.492C31.6982 221.685 23.987 222.077 23.7779 228.905C18.9847 226.579 14.2043 231.07 15.9188 237.548C10.5077 238.882 9.6781 246.115 11.3653 251.399C4.4676 252.194 3.0277 265.071 7.78685 271.051C0.891645 273.746 0.852545 286.319 6.27895 291.169C2.68685 293.319 2.3307 303.773 8.1855 306.658C8.0342 306.828 7.8897 307.005 7.752 307.188C4.30525 311.802 7.1859 319.403 12.2272 319.403H382.828C387.869 319.403 390.75 311.802 387.303 307.188C387.166 307.004 387.021 306.827 386.871 306.658C392.728 303.771 392.372 293.319 388.78 291.168Z" fill="#A91B25"/>
<path d="M6.2817 291.168C2.6896 293.319 2.33345 303.771 8.18825 306.657C8.03695 306.827 7.89245 307.003 7.75475 307.187C4.308 311.8 7.18865 319.402 12.23 319.402H17.1642C18.2352 316.696 20.1784 314.619 22.8278 314.384C21.2034 312.632 18.7571 310.852 17.7839 308.388C17.4362 307.51 16.718 301.633 18.35 301.659C16.0558 301.622 13.9623 299.104 13.8365 296.232C13.7311 293.831 14.8115 291.631 15.8518 289.611C13.6639 288.587 11.9461 286.111 11.4412 283.251C10.9363 280.391 11.6596 277.238 13.2984 275.15C13.499 274.896 13.7184 274.643 13.8144 274.306C14.0558 273.455 13.4276 272.655 12.9482 271.981C11.5143 269.97 11.0502 266.95 11.7854 264.414C12.5207 261.879 14.4239 259.936 16.5523 259.55C15.6215 257.145 15.8399 254.104 17.0988 251.946C18.3576 249.787 20.6025 248.605 22.7122 248.989C21.3913 246.361 22.5278 242.6 24.6332 240.966C26.7395 239.331 29.4476 239.437 31.8267 240.299C31.2436 237.967 32.1956 235.279 33.8344 233.958C35.4741 232.637 37.6407 232.589 39.4495 233.5C39.0203 229.157 41.8457 226.231 44.9405 225.499C45.8373 225.287 48.6355 224.853 49.2654 225.936C47.0154 222.069 50.6117 215.502 54.1562 218.933C52.3602 216.418 51.2841 215.153 49.2858 214.676C47.8034 214.322 45.7719 214.559 44.7901 215.627C43.1964 212.935 43.7106 206.296 47.6911 205.668C44.7841 201.356 46.5768 196.437 50.4851 194.782C48.8412 193.769 46.36 193.347 45.4463 190.929C44.4246 188.227 45.7021 185.612 47.1063 183.652C43.238 184.626 39.3773 189.932 41.9724 195.061C37.0993 194.975 34.914 203.834 38.9939 207.715C35.9952 208.63 35.0287 215.508 38.5247 218.94C36.5009 218.951 33.3448 223.846 33.4383 226.49C31.7027 221.683 23.9914 222.075 23.7823 228.903C18.9892 226.577 14.2088 231.068 15.9232 237.546C10.5121 238.88 9.68255 246.112 11.3698 251.397C4.47205 252.192 3.03215 265.069 7.7913 271.048C0.8944 273.745 0.8553 286.319 6.2817 291.168Z" fill="#A91B25"/>
<path d="M345.797 225.94C346.427 224.856 349.225 225.29 350.122 225.502C351.717 225.88 353.188 227.119 354.072 228.825C355.067 230.746 355.314 233.247 354.724 235.414C356.537 234.89 358.562 235.802 359.696 237.652C360.83 239.501 361.012 242.191 360.142 244.253C363.699 243.251 369.162 244.032 371.943 247.409C373.469 249.261 374.052 252.448 372.898 254.683C373.113 254.267 375.912 254.226 378.218 256.019C379.633 257.12 380.513 259.204 380.597 261.298C380.691 263.643 379.824 266.814 378.961 267.946C379.144 267.503 381.301 269.386 381.494 269.611C382.173 270.4 382.744 271.458 383.009 272.58C383.499 274.656 382.202 277.145 380.429 277.209C381.828 277.988 383.155 279.109 383.989 280.719C384.823 282.329 385.087 284.487 384.384 286.194C383.459 288.443 381.272 289.272 379.313 289.882C380.497 291.559 381.156 293.927 380.706 296.094C380.257 298.261 378.53 300.024 376.758 299.745C378.644 301.239 379.624 304.329 379.071 307.039C378.518 309.748 376.473 311.868 374.246 312.039C375.235 311.964 375.983 314.548 376.233 315.367C376.686 316.849 377.306 317.909 377.898 319.406H382.832C387.874 319.406 390.754 311.805 387.308 307.191C387.17 307.007 387.025 306.83 386.875 306.661C392.73 303.776 392.374 293.322 388.781 291.172C394.208 286.322 394.169 273.75 387.274 271.054C392.033 265.075 390.593 252.197 383.695 251.402C385.382 246.118 384.553 238.886 379.142 237.551C380.856 231.073 376.076 226.582 371.283 228.908C371.073 222.081 363.362 221.687 361.627 226.495C361.72 223.851 358.564 218.956 356.54 218.946C360.036 215.513 359.07 208.635 356.071 207.721C360.151 203.839 357.966 194.981 353.093 195.066C355.688 189.938 351.827 184.631 347.959 183.658C349.362 185.616 350.64 188.232 349.619 190.934C348.705 193.352 346.224 193.774 344.58 194.788C348.488 196.443 350.28 201.362 347.374 205.674C351.354 206.302 351.869 212.942 350.275 215.632C349.293 214.565 347.262 214.329 345.779 214.682C343.781 215.158 342.705 216.424 340.909 218.938C344.451 215.506 348.046 222.072 345.797 225.94Z" fill="#A91B25"/>
<path d="M196.332 466.041C304.763 466.041 392.664 405.176 392.664 330.094C392.664 255.013 304.763 194.147 196.332 194.147C87.9009 194.147 0 255.013 0 330.094C0 405.176 87.9009 466.041 196.332 466.041Z" fill="#D8D3D2"/>
<path opacity="0.7" d="M196.332 466.041C304.763 466.041 392.664 405.176 392.664 330.094C392.664 255.013 304.763 194.147 196.332 194.147C87.9009 194.147 0 255.013 0 330.094C0 405.176 87.9009 466.041 196.332 466.041Z" fill="#D8D3D2"/>
<path d="M237.344 463.051C273.189 457.774 307.318 445.503 335.161 426.223C354.013 413.169 368.219 398.118 377.801 382.055L129.509 202.239C103.23 208.811 78.5672 219.379 57.5033 233.964C31.8869 251.703 14.8427 273.124 6.34354 295.766L237.344 463.051Z" fill="#FAFAFA"/>
<path d="M247.451 287.636L121.287 378.987L125.078 381.731L251.24 290.381L247.451 287.636Z" fill="#E7DCDC"/>
<path d="M259.888 458.745L371.827 377.693L368.037 374.949L249.124 461.05C252.736 460.355 256.326 459.587 259.888 458.745Z" fill="#E7DCDC"/>
<path d="M129.509 202.239C126.69 202.944 123.888 203.694 121.108 204.492L11.7751 283.656C10.3318 286.412 9.01596 289.192 7.83871 291.994L130.654 203.068L129.509 202.239Z" fill="#E7DCDC"/>
<path d="M114.788 28.0453C116.008 15.6168 108.963 4.30101 99.0531 2.77077C89.143 1.24054 80.1201 10.0753 78.8999 22.5038C77.6797 34.9323 84.7243 46.2481 94.6345 47.7783C104.545 49.3085 113.568 40.4738 114.788 28.0453Z" fill="white"/>
<path d="M349.469 36.2098C349.439 36.1426 349.416 36.0776 349.382 36.0094C347.963 33.1386 342.288 33.7654 339.793 34.7909C339.87 33.8113 339.847 33.1653 339.405 31.7699C338.858 30.044 337.256 28.2595 335.677 27.7852C334.182 27.3353 330.016 27.2906 328.902 28.9002C329.241 22.9988 324.728 21.5843 320.447 23.7887C320.292 17.3245 315.648 13.6649 309.103 14.4389C303.548 15.0955 298.652 18.9971 298.639 24.6106C297.118 23.0266 293.916 23.2515 292.584 23.5095C288.604 24.2802 285.776 27.314 285.661 31.1932C282.673 28.4855 277.462 31.5194 276.164 34.7216C274.947 34.3709 272.09 35.082 271.272 36.2098H349.469Z" fill="#A91B25"/>
<path d="M97.1108 87.3915C97.0666 87.3201 97.0241 87.2487 96.9731 87.1751C96.0984 85.9098 92.8957 85.1082 91.5382 85.4994C90.1026 81.9581 84.3412 78.6034 81.0364 81.5978C80.909 77.3082 77.7818 73.9535 73.3814 73.1018C71.9066 72.8161 68.368 72.5677 66.685 74.3192C66.6706 68.1119 61.2569 63.7978 55.114 63.0718C47.8762 62.2158 42.7414 66.2624 42.5689 73.4109C37.8361 70.9741 32.8448 72.5368 33.2197 79.0639C31.9889 77.2837 27.3819 77.3338 25.7286 77.8306C23.981 78.3561 22.2105 80.3293 21.6053 82.2374C21.1165 83.7799 21.091 84.4952 21.1769 85.5783C18.4169 84.4441 12.1422 83.7512 10.5723 86.9257C10.4924 87.0867 10.4278 87.2423 10.37 87.3947H97.1108V87.3915Z" fill="#A91B25"/>
<path d="M383.876 88.4353C383.84 88.3788 383.807 88.3223 383.767 88.2636C383.074 87.2605 380.532 86.6241 379.456 86.9343C378.317 84.1244 373.747 81.4636 371.124 83.8387C371.023 80.436 368.542 77.7742 365.051 77.0983C363.882 76.8713 361.074 76.6741 359.739 78.0641C359.727 73.1392 355.433 69.7174 350.56 69.1407C344.817 68.4616 340.744 71.6724 340.607 77.3435C336.852 75.4098 332.893 76.6506 333.19 81.8282C332.213 80.4157 328.558 80.4552 327.247 80.8496C325.86 81.2664 324.455 82.8313 323.975 84.345C323.587 85.5688 323.567 86.1359 323.635 86.9951C321.445 86.0954 316.467 85.5453 315.222 88.0643C315.159 88.1922 315.107 88.3159 315.061 88.4363L383.876 88.4353Z" fill="#A91B25"/>
<path opacity="0.15" d="M131.293 367.827C141.181 372.205 150.646 378.079 159.419 385.282C169.28 393.377 178.3 403.164 188.799 409.88C202.443 418.607 218.089 421.737 233.387 420.791C242.052 420.256 251.469 417.906 256.99 409.512C258.403 407.363 259.527 404.757 259.548 401.971C259.578 397.881 257.285 394.379 254.915 391.569C242.27 376.579 224.664 370.446 207.687 365.659C190.71 360.871 180.522 354.859 163.838 344.023C156.698 339.385 149.66 334.4 142.466 330.028C142.407 329.993 142.35 329.958 142.291 329.922C138.638 327.715 135.208 325.273 131.359 323.552C125.219 320.808 118.934 318.411 112.456 317.502C105.978 316.594 99.263 317.235 93.2501 320.39C91.7023 321.203 90.1408 322.249 89.2177 324.007C88.4374 325.494 88.202 327.342 88.2504 329.121C88.349 332.746 89.5492 336.227 91.2543 339.157C92.9594 342.087 95.1524 344.515 97.4287 346.751C107.359 356.501 119.486 362.6 131.293 367.827Z" fill="black"/>
<path d="M214.842 82.9165C226.158 82.3504 231.761 82.4965 242.966 86.4161C254.171 90.3358 272.762 97.8405 272.762 97.8405C272.762 97.8405 277.355 114.428 273.657 116.913C269.96 119.398 261.811 117.483 248.186 115.087C234.562 112.692 227.201 111.98 221.394 119.522L214.842 82.9165Z" fill="#E7DCDC"/>
<path d="M242.967 86.4161C240.822 85.6667 238.885 85.0559 237.072 84.5613C239.064 87.3553 241.856 91.4199 244.193 95.3876C248.346 102.434 252.499 109.634 259.225 112.398L260.37 92.9368C254.667 90.7153 248.056 88.1963 242.967 86.4161Z" fill="#E7DCDC"/>
<path d="M103.654 307.717C103.604 306.436 103.693 305.154 103.967 303.891C104.644 300.755 105.794 297.006 107.56 294.655C109.568 291.982 111.783 289.461 113.41 286.382C115.161 283.066 116.494 279.814 117.554 276.043C118.372 273.134 118.884 269.78 120.274 267.186C124.492 259.318 131.892 262.444 136.365 262.792L154.412 253.44L155.258 281.073C155.258 281.073 146.185 282.413 143.453 283.294C139.834 284.461 135.882 288.692 133.25 291.767C129.908 295.674 125.933 299.596 124.81 305.39C124.2 308.537 124.195 311.809 124.124 315.046C124.103 315.967 124.075 316.905 123.831 317.774C123.156 320.169 121.085 321.388 119.212 322.357C116.178 323.926 112.598 325.464 109.767 323.379C108.155 322.191 107.161 320.053 106.302 317.97C104.982 314.773 103.791 311.242 103.654 307.717Z" fill="#E7DCDC"/>
<path d="M118.935 329.666C118.935 329.666 116.346 330.407 112.775 328.376C109.828 326.701 107.74 324.239 107.74 324.239C103.01 319.101 100.414 311.667 100.948 306.011C101.437 300.821 106.474 291.049 107.861 288.292C109.549 284.935 110.527 279.459 110.722 276.149C110.837 274.201 112.846 262.922 113.813 261.881L120.24 261.565C120.24 261.565 116.916 266.873 116.524 270.763C116.132 274.653 112.861 291.077 110.985 295.074C109.109 299.072 108.433 307.058 110.365 312.898C112.297 318.737 121.87 326.634 121.87 326.634L118.935 329.666Z" fill="#111111"/>
<path d="M124.975 307.144L121.099 300.415C121.099 300.415 123.426 284.545 126.102 278.851C128.778 273.156 130.939 273.202 131.345 274.878C132.626 280.163 138.951 285.761 140.496 284.817C141.082 287.16 138.52 286.502 135.59 290.214C132.835 293.706 127.59 298.807 124.975 307.144Z" fill="#37474F"/>
<path d="M111.772 284.418C111.098 287.177 109.913 289.795 108.638 292.187C105.505 298.072 102.88 305.324 104.448 312.545C105.079 315.448 106.489 318.011 108.189 320.133C109.89 322.254 111.879 323.971 113.883 325.625C115.715 327.136 119.417 328.201 120.021 327.954C121.875 326.966 123.689 325.124 124.145 322.547C124.891 318.337 124.858 313.942 125.576 309.727C125.936 307.619 126.075 305.381 126.873 303.438C127.75 301.3 129.046 299.495 130.246 297.642C131.921 295.059 133.68 292.53 135.589 290.214C133.417 292.848 126.834 299.642 125.148 304.58L122.352 299.851C122.352 299.851 123.768 290.841 124.889 287.181C126.119 283.168 127.061 281.107 128.235 279.068C128.959 277.811 129.384 276.339 129.129 274.791C128.885 273.322 128.001 272.149 127.66 270.687C127.363 269.418 127.367 267.98 127.908 266.844C128.523 265.558 129.696 264.884 130.82 264.373C132.455 263.63 134.649 263.167 136.363 262.792C136.514 261.892 136.1 261.477 135.716 261.39C134.867 261.196 134.007 261.092 133.147 260.989C131.214 260.757 129.282 260.525 127.349 260.295C125.523 260.077 123.829 260.105 121.978 260.231C121.143 260.287 120.289 260.349 119.514 260.743C118.285 261.367 117.41 262.745 116.694 264.144C115.097 267.271 114.03 270.775 113.317 274.367C112.659 277.691 112.565 281.17 111.772 284.418Z" fill="#455A64"/>
<path d="M122.539 260.32C122.999 262.009 121.105 266.178 118.832 268.218C116.559 270.26 111.632 272.989 110.722 276.15C110.324 271.023 111.519 265.883 112.642 262.878C113.303 261.108 114.387 260.665 115.586 260.124C116.787 259.584 122.395 259.456 122.539 260.32Z" fill="#A91B25"/>
<path d="M118.992 329.525C120.345 327.514 121.112 325.347 119.989 324.589C118.867 323.833 113.165 320.929 111.493 321.207C109.821 321.485 107.692 324.431 107.692 324.431C107.692 324.431 109.661 327.194 113.238 329.056C116.859 330.941 118.992 329.525 118.992 329.525Z" fill="#A91B25"/>
<path d="M126.5 274.807C126.122 275.119 126.018 275.754 126.265 276.227C126.512 276.7 127.02 276.833 127.397 276.521C127.775 276.21 127.88 275.575 127.632 275.101C127.384 274.628 126.877 274.497 126.5 274.807Z" fill="#A91B25"/>
<path d="M121.541 295.98C121.893 295.951 122.159 296.209 122.446 296.441C122.732 296.672 123.01 296.921 123.278 297.186C123.798 297.702 124.275 298.293 124.703 298.928C125.128 299.557 125.516 300.238 125.842 300.954C126.168 301.674 126.562 302.568 126.61 303.407C126.627 303.695 126.195 303.67 126.109 303.484C125.774 302.753 125.536 301.96 125.195 301.23C124.882 300.561 124.528 299.931 124.124 299.343C123.738 298.782 123.314 298.267 122.86 297.791C122.64 297.56 122.411 297.341 122.176 297.135C121.907 296.9 121.614 296.713 121.393 296.407C121.275 296.246 121.375 295.994 121.541 295.98Z" fill="#A91B25"/>
<path d="M121.592 295.914C122.17 295.718 122.883 295.801 123.493 295.889C124.161 295.984 124.827 296.166 125.481 296.446C126.137 296.727 126.766 297.096 127.378 297.55C127.694 297.785 127.996 298.048 128.288 298.337C128.57 298.616 128.888 298.923 129.08 299.323C129.158 299.486 128.916 299.581 128.834 299.523C128.253 299.106 127.719 298.565 127.138 298.144C126.573 297.736 125.969 297.401 125.365 297.152C124.8 296.918 124.22 296.748 123.643 296.666C123.353 296.624 123.063 296.603 122.774 296.6C122.477 296.596 122.181 296.656 121.885 296.637C121.727 296.627 121.553 296.536 121.472 296.329C121.403 296.152 121.451 295.962 121.592 295.914Z" fill="#A91B25"/>
<path d="M123.643 291.339C125.522 294.685 126.712 299.251 126.671 302.81C126.667 303.181 126.126 303.194 126.127 302.864C126.149 299.173 124.848 295.014 123.103 291.584C122.884 291.153 123.462 291.016 123.643 291.339Z" fill="#A91B25"/>
<path d="M123.202 291.32C123.879 291.163 124.689 291.339 125.38 291.509C126.137 291.696 126.884 291.978 127.609 292.372C128.336 292.767 129.026 293.259 129.687 293.845C130.029 294.148 130.353 294.481 130.661 294.844C130.96 295.195 131.299 295.579 131.485 296.057C131.56 296.251 131.275 296.331 131.186 296.255C130.557 295.715 129.991 295.038 129.36 294.493C128.747 293.964 128.085 293.515 127.413 293.161C126.786 292.83 126.137 292.57 125.483 292.41C125.154 292.33 124.824 292.272 124.494 292.235C124.155 292.198 123.81 292.231 123.473 292.177C123.292 292.147 123.1 292.023 123.026 291.778C122.964 291.568 123.035 291.358 123.202 291.32Z" fill="#A91B25"/>
<path d="M124.764 287.087C125.593 286.926 126.551 287.145 127.367 287.354C128.261 287.583 129.133 287.921 129.969 288.384C130.808 288.849 131.591 289.421 132.333 290.101C132.716 290.453 133.074 290.838 133.413 291.255C133.74 291.659 134.111 292.102 134.291 292.647C134.363 292.867 134.013 292.952 133.912 292.863C133.206 292.236 132.588 291.457 131.88 290.826C131.192 290.212 130.437 289.689 129.662 289.272C128.938 288.883 128.181 288.573 127.41 288.375C127.022 288.276 126.63 288.203 126.237 288.154C125.832 288.102 125.415 288.132 125.014 288.062C124.8 288.025 124.58 287.88 124.513 287.6C124.454 287.362 124.559 287.126 124.764 287.087Z" fill="#A91B25"/>
<path d="M125.208 287.965C127.354 291.049 128.347 295.1 129.168 298.981C129.243 299.34 128.71 299.419 128.631 299.106C127.664 295.283 126.71 291.464 124.692 288.279C124.438 287.88 125.001 287.668 125.208 287.965Z" fill="#A91B25"/>
<path d="M126.482 282.66C129.096 286.532 131.36 291.885 131.765 295.901C131.809 296.328 131.249 296.338 131.189 295.958C130.39 290.981 128.428 286.904 125.944 282.937C125.631 282.44 126.229 282.286 126.482 282.66Z" fill="#A91B25"/>
<path d="M224.34 167.91C224.34 167.91 226.962 220 219.921 251.106C215.536 270.477 198.171 272.309 194.46 273.312C177.999 277.76 147.466 282.377 147.466 282.377C147.466 282.377 139.42 270.366 143.636 259.024C157.33 250.197 172.95 236.695 185.013 237.215L206.882 171.613L224.34 167.91Z" fill="#111111"/>
<path d="M213.903 212.484C213.903 212.484 220.922 206.53 221.819 191.896L197.384 200.104L185.014 237.215C185.012 237.215 185.011 237.215 185.009 237.215C184.511 237.194 184.005 237.204 183.495 237.23C183.37 237.236 183.243 237.244 183.116 237.253C182.611 237.289 182.102 237.339 181.586 237.416C181.581 237.417 181.576 237.417 181.571 237.418C181.033 237.501 180.487 237.609 179.938 237.734C179.831 237.759 179.724 237.784 179.617 237.81C179.075 237.94 178.531 238.084 177.98 238.252C175.108 239.129 172.115 240.508 169.057 242.194L184.334 275.729C184.338 275.728 184.341 275.729 184.344 275.728C185.198 275.544 186.039 275.357 186.867 275.171C186.964 275.148 187.062 275.127 187.159 275.106C188 274.915 188.828 274.723 189.636 274.531C189.656 274.527 189.676 274.522 189.696 274.516C190.429 274.342 191.14 274.167 191.839 273.992C192.015 273.948 192.191 273.903 192.364 273.86C193.08 273.677 193.782 273.496 194.454 273.315C194.455 273.315 194.457 273.314 194.459 273.314C198.17 272.311 215.535 270.478 219.92 251.108C220.414 248.927 220.859 246.669 221.265 244.361L213.903 212.484Z" fill="#111111"/>
<path d="M236.01 370.518C234.517 370.647 234.445 368.195 233.817 362.426C233.127 356.082 230.467 331.256 230.467 331.256L206.618 343.056C206.618 343.056 212.804 363.495 214.748 369.389C216.908 375.937 219.93 384.923 220.423 390.021C220.916 395.12 221.142 409.343 226.241 411.893C231.34 414.442 236.071 411.53 239.439 408.767C242.808 406.003 246.698 396.358 250.423 391.472C254.147 386.587 257.288 383.872 260.163 378.824C263.038 373.777 262.823 361.279 258.932 358.683C255.042 356.088 249.513 359.056 246.259 361.506C243.007 363.955 238.777 370.278 236.01 370.518Z" fill="#E7DCDC"/>
<path d="M172.576 161.378C163.965 173.828 160.026 184.558 159.636 195.456C159.219 207.091 162.343 217.823 166.026 226.451C173.159 243.162 178.928 253.119 194.743 291.035C194.782 299.546 194.921 308.022 199.884 323.989C206.054 343.838 213.402 365.169 213.402 365.169C213.402 365.169 218.911 352.663 232.913 354.511C232.18 344.731 227.521 298.171 225.246 284.41C222.414 267.279 210.234 210.902 210.234 210.902C210.234 210.902 225.628 202.4 224.339 167.909L172.576 161.378Z" fill="#111111"/>
<path d="M209.817 316.806C204.266 295.524 206.659 289.914 204.231 282.246C201.804 274.578 184.913 237.063 181.587 226.704C178.418 216.834 170.184 194.924 182.554 171.173L177.291 167.493C163.996 192.088 167.9 213.035 175.564 231.757C183.655 251.521 195.478 280.031 197.832 285.253C200.185 290.475 197.363 298.752 202.91 319.416C205.515 329.12 211.707 350.953 215.163 362.249C216.454 360.469 218.492 358.229 221.394 356.585C217.581 344.083 211.33 322.611 209.817 316.806Z" fill="#A91B25"/>
<path d="M259.484 358.06C257.211 355.348 253.592 355.391 248.789 358.394C243.054 361.978 240.263 366.157 240.26 366.161C239.522 367.263 238.795 368.095 237.552 367.591C237.146 367.425 236.786 367.123 236.405 366.88C233.719 365.164 230.468 366.633 227.796 368.384C227.525 368.562 227.242 368.756 227.08 369.082C226.616 370.015 227.411 371.122 228.141 371.732C228.864 372.337 229.458 373.077 229.985 373.954C229.308 373.746 228.63 373.538 227.954 373.33C227.542 373.203 227.112 373.076 226.698 373.187C225.95 373.387 225.468 374.28 225.115 375.129C224.649 376.25 224.267 377.426 223.974 378.634C223.696 379.785 223.469 381.032 222.778 381.863C222.113 382.663 221.077 382.913 220.204 382.541C219.331 382.168 218.424 381.212 218.17 380.1C218.107 380.184 218.044 380.261 217.961 380.762C217.907 381.095 217.916 381.406 217.979 381.727C218.155 382.632 218.648 383.385 218.889 384.261C219.619 386.914 219.859 389.839 220.052 392.616C220.572 400.082 221.263 404.158 222.349 407.93L247.384 377.583L245.727 374.926C251.315 370.653 259.484 358.06 259.484 358.06Z" fill="#455A64"/>
<path d="M262.951 363.299C262.585 361.188 261.949 359.89 261.118 359.217C260.8 358.959 259.697 358.233 259.484 358.06C256.659 355.759 251.592 360.707 247.32 365.563C242.345 371.221 237.747 382.579 233.722 390.27C229.697 397.961 224.701 400.918 223.05 404.309C221.879 406.715 222.193 409.364 223.527 411.193C223.784 411.545 224.729 412.65 224.918 412.877C226.238 414.464 228.577 415.108 231.34 414.441C236.917 413.097 240.925 410.876 245.537 402.64C250.148 394.404 252.583 390.137 257.965 384.85C263.348 379.563 264.1 369.932 262.951 363.299Z" fill="#37474F"/>
<path d="M262.951 363.299C261.34 354.004 254.48 360.449 248.956 366.731C243.981 372.389 239.382 383.747 235.357 391.438C231.333 399.129 226.214 401.998 224.686 405.477C221.907 411.803 225.764 415.787 231.341 414.442C236.918 413.098 240.926 410.877 245.538 402.641C250.149 394.405 252.583 390.138 257.966 384.851C263.348 379.563 264.1 369.932 262.951 363.299Z" fill="#263238"/>
<path d="M225.038 413.019C221.466 411.177 220.764 400.614 220.507 397.912C220.25 395.211 222.097 392.84 225.449 394.357C228.801 395.874 232.914 395.425 232.914 395.425C232.914 395.425 231.037 398.422 228.012 401.587C225.797 403.905 222.326 409.645 225.038 413.019Z" fill="#A91B25"/>
<path d="M251.254 364.213C252.383 362.495 250.806 360.152 250.764 358.903C250.723 357.653 251.719 356.352 254.5 355.936C257.281 355.519 258.117 355.624 259.484 356.769C260.851 357.914 261.861 360.075 261.861 360.075C261.861 360.075 260.63 358.633 258.443 359.059C254.662 359.795 251.254 364.213 251.254 364.213Z" fill="#A91B25"/>
<path d="M228.5 376.893C228.5 377.659 228.004 378.281 227.393 378.281C226.781 378.281 226.285 377.659 226.285 376.893C226.285 376.126 226.781 375.505 227.393 375.505C228.004 375.504 228.5 376.125 228.5 376.893Z" fill="#A91B25"/>
<path d="M172.229 150.876C172.858 154.702 173.717 158.667 171.506 162.922C174.593 173.123 193.39 176.645 205.393 175.123C221.892 173.032 224.34 167.909 224.34 167.909L224.157 154.667L172.229 150.876Z" fill="#E7DCDC"/>
<path d="M233.078 114.849C227.096 97.2618 214.842 82.9166 214.842 82.9166C212.253 82.7012 192.392 81.6353 192.392 81.6353C192.392 81.6353 181.809 84.2043 175.149 86.4429C171.904 89.561 169.566 94.0499 167.362 102.112C166.427 105.537 165.042 118.322 166.166 123.466C168.528 134.28 172.64 153.809 172.64 153.809C182.309 169.452 216.716 165.437 224.18 157.418L224.465 142.218C234.795 136.988 236.001 123.445 233.078 114.849Z" fill="#A91B25"/>
<path d="M192.456 82.7055C193.934 82.7855 211.095 83.7097 214.48 83.9559C216.143 85.9717 226.891 99.3746 232.296 115.266C233.988 120.24 234.038 126.365 232.428 131.249C230.931 135.793 228.067 139.244 224.147 141.228L223.628 141.49L223.615 142.192L223.34 156.9C219.476 160.638 209.144 163.42 198.961 163.42C186.799 163.42 177.505 159.742 173.418 153.322C172.963 151.163 169.19 133.271 166.986 123.183C165.899 118.207 167.298 105.636 168.167 102.456C170.207 94.9922 172.416 90.4777 175.534 87.4162C181.756 85.3417 191.382 82.9688 192.456 82.7055ZM192.392 81.6353C192.392 81.6353 181.809 84.2043 175.149 86.4429C171.904 89.561 169.566 94.0499 167.362 102.112C166.427 105.537 165.042 118.322 166.166 123.466C168.528 134.28 172.64 153.809 172.64 153.809C177.432 161.563 188.306 164.487 198.96 164.487C209.801 164.487 220.415 161.462 224.18 157.417L224.465 142.217C234.795 136.988 236.001 123.445 233.078 114.849C227.096 97.2618 214.842 82.9166 214.842 82.9166C212.253 82.7012 192.392 81.6353 192.392 81.6353Z" fill="#E0E0E0"/>
<path d="M211.216 139.331C211.216 139.331 203.507 146.171 194.089 141.718C184.883 137.366 183.42 127.077 184.125 123.061C184.125 123.061 180.482 139.196 191.938 144.786C206.276 151.783 211.216 139.331 211.216 139.331Z" fill="#A91B25"/>
<path d="M173.491 17.4609C170.27 18.1997 167.715 21.9211 167.361 26.0039C165.422 24.5989 162.932 24.0542 160.944 25.3461C158.955 26.6371 157.882 30.1272 159.141 32.45C157.575 32.5576 156.093 30.7625 156.125 28.7957C155.394 30.4235 155.002 32.386 155.417 34.1812C155.831 35.9763 157.207 37.4794 158.692 37.3344C157.104 37.4538 155.777 39.0101 155.066 40.7967C154.147 43.1068 154.091 46.0425 155.24 48.1841C156.389 50.3268 158.841 51.3512 160.656 50.1328C159.278 51.9034 159.119 54.9564 160.303 56.9371C161.486 58.9166 163.868 59.5818 165.61 58.4199C165.152 60.9484 167.143 63.6539 169.189 63.283C167.708 62.4472 167.346 59.553 168.552 58.1885C168.449 59.8078 169.49 61.265 170.697 61.8545C171.905 62.444 173.244 62.363 174.539 62.2745C176.137 62.1637 177.806 62.0272 179.18 60.9996C181.385 59.3505 182.22 55.9307 182.877 52.8191L181.178 23.2301C180.277 19.2806 176.712 16.7222 173.491 17.4609Z" fill="#111111"/>
<path d="M224.921 20.9627C224.278 13.2086 217.336 12.5275 215.483 12.7076C212.954 12.9539 210.068 11.1203 208.471 8.58966C206.709 5.79781 203.207 4.11992 200.046 4.98658C195.055 6.35532 196.115 9.00753 191.879 10.5682C188.103 11.9593 185.384 10.2867 181.861 14.1734C179.744 16.5079 178.694 20.6568 179.015 24.2023C176.406 26.0465 172.625 37.619 177.439 50.7702C179.914 57.5287 183.042 60.7832 186.889 66.4713L190.782 66.676C192.185 62.5975 195.469 63.5409 198.537 62.7446C200.506 61.7479 201.696 59.0839 203.665 58.0862C205.665 57.0724 207.946 58.0158 210.083 57.6544C211.743 57.3741 213.449 56.2249 215.145 56.8539C218.993 59.0381 225.009 55.0683 224.746 49.3908C224.652 47.6692 223.953 45.9689 224.269 44.29C224.683 42.0898 226.607 40.9598 227.673 39.138C228.872 37.0934 228.929 33.969 227.612 32.0417C224.928 28.1145 225.287 25.3717 224.921 20.9627Z" fill="#111111"/>
<path d="M187.146 77.4373C187.144 74.88 186.816 62.9045 186.816 62.9045C186.738 63.8607 182.423 66.5503 179.067 61.6531C175.622 56.6269 176.281 51.7307 178.246 48.359C180.418 44.6322 185.308 44.774 187.308 50.7948C188.783 50.8044 191.128 50.4419 190.367 40.9034C190.385 29.3895 199.256 19.8349 206.774 27.7798C209.674 21.3177 215.88 23.8538 218.182 30.1101C219.452 34.0298 219.873 35.3762 219.27 42.8147C219.169 44.0651 220.393 46.7227 220.296 52.2957C220.055 66.0961 217.178 70.2226 213.941 73.006C212.012 74.6636 209.842 75.5228 205.773 75.1497L205.83 78.4799C205.924 80.6193 205.733 81.1406 207.332 81.8633C208.437 82.3633 210.718 82.6085 210.718 82.6085C210.718 82.6085 218.951 98.5025 203.952 100.966C189.491 103.341 182.418 84.2491 182.418 84.2491C182.418 84.2491 183.337 83.9836 185.025 83.2129C186.714 82.4401 187.149 79.9936 187.146 77.4373Z" fill="#E7DCDC"/>
<path d="M184.868 54.2156C184.926 55.1324 184.594 56.0545 184.019 56.6269C183.667 56.9776 183.291 57.1546 182.917 57.2356C182.674 57.2878 182.781 57.743 183.078 59.1491L183.264 60.0488C183.397 60.5199 183.2 61.0369 182.825 61.2043C182.449 61.3706 182.036 61.1244 181.903 60.6521L180.459 55.5247C180.027 53.9907 180.598 52.2041 181.823 51.6721C183.208 51.0709 184.743 52.2307 184.868 54.2156Z" fill="#FAFAFA"/>
<path d="M201.974 57.9604L207.696 60.1703C207.238 62.2234 205.587 63.3928 204.007 62.783C202.427 62.1733 201.516 60.0146 201.974 57.9604Z" fill="#E7DCDC"/>
<path d="M202.35 59.6095C203.946 59.5402 205.316 60.9089 205.669 62.7872C205.143 62.9833 204.572 63.0004 204.008 62.7829C202.874 62.3448 202.094 61.1061 201.908 59.6841C202.053 59.6532 202.198 59.6158 202.35 59.6095Z" fill="#957878"/>
<path d="M216.345 38.0677L211.848 35.1543C212.447 33.5543 213.941 32.9094 215.183 33.7142C216.424 34.519 216.945 36.4677 216.345 38.0677Z" fill="black"/>
<path d="M195.399 39.0739L199.746 35.6681C199.035 34.1149 197.486 33.6182 196.285 34.5594C195.085 35.4996 194.687 37.5218 195.399 39.0739Z" fill="black"/>
<path d="M211.852 44.1258C211.775 45.5692 212.656 46.8484 213.818 46.9859C214.981 47.1223 215.986 46.0628 216.062 44.6205C216.14 43.176 215.259 41.8968 214.097 41.7604C212.934 41.6239 211.929 42.6825 211.852 44.1258Z" fill="black"/>
<path d="M197.64 44.1258C197.563 45.5692 198.444 46.8494 199.606 46.9859C200.769 47.1223 201.774 46.0627 201.85 44.6204C201.928 43.1771 201.047 41.8968 199.884 41.7604C198.722 41.6239 197.717 42.6835 197.64 44.1258Z" fill="black"/>
<path d="M213.207 52.6836L207.171 56.3836L205.82 41.7485L213.207 52.6836Z" fill="#E7DCDC"/>
<path d="M205.774 75.1476C198.473 74.315 191.454 71.8867 189.63 66.3147C189.63 66.3147 189.635 71.2791 193.843 74.0667C199.921 78.0929 205.82 77.8328 205.82 77.8328L205.774 75.1476Z" fill="#E7DCDC"/>
<path d="M174.628 40.3245C174.635 36.5456 177.095 25.1479 191.831 18.625C207.681 11.6086 214.6 18.2466 216.594 21.0033C218.588 23.7599 221.434 33.7814 219.389 34.8197C219.209 33.5181 218.898 32.2496 218.473 31.0087C218.473 31.0087 208.205 24.778 197.635 30.4789C187.066 36.1799 179.077 45.7281 177.153 50.8502C177.154 50.8523 174.613 48.602 174.628 40.3245Z" fill="#E0E0E0"/>
<path d="M185.039 32.0567C192.301 25.9486 200.987 21.3584 209.894 22.9051C213.161 23.4722 216.295 24.8751 219.096 27.0082C218.943 26.473 218.78 25.9443 218.606 25.4294C212.77 20.7166 205.123 20.0397 198.418 22.0374C193.772 23.4211 189.417 26.0381 185.401 29.2404C181.455 32.3872 177.821 36.1043 175.413 41.2062C175.166 41.7286 174.938 42.2637 174.711 42.7978C174.778 43.7806 174.88 44.6654 175.012 45.4382C175.268 44.8242 175.539 44.2187 175.829 43.625C178.164 38.8461 181.351 35.1588 185.039 32.0567Z" fill="#A91B25"/>
<path opacity="0.2" d="M185.824 39.2073C185.096 39.3149 184.339 39.1945 183.735 38.6849C182.564 37.6967 182.316 35.6863 182.295 33.9167C182.254 30.4746 182.666 27.0272 183.5 23.7471C176.1 29.9874 174.632 37.4153 174.627 40.3244C174.612 48.6009 177.153 50.8512 177.153 50.8512C178.259 47.908 181.375 43.5043 185.824 39.2073Z" fill="#111111"/>
<path d="M148.982 201.771C147.331 198.242 146.135 195.672 146.091 194.373C146.135 192.28 149.265 197.017 150.533 197.854C151.801 198.689 152.463 198.882 153.907 198.626C154.656 198.492 155.751 197.325 155.553 196.397C155.511 196.198 155.376 196.108 155.261 195.974C153.451 193.883 152.122 191.429 150.588 188.927C148.936 186.235 148.405 185.016 146.067 181.929C144.781 180.23 142.508 177.824 142.155 173.993C140.994 161.425 141.171 154.735 140.628 142.468C148.566 137.099 156.687 131.122 160.273 128.997C166.558 125.272 168.364 133.658 168.364 133.658C184.748 136.174 181.638 96.2778 175.148 86.4429C162.974 88.5162 159.449 93.8303 151.716 100.321C147.361 103.976 144.529 106.286 137.617 112.69C134.15 115.902 130.706 118.356 124.454 124.831C122.384 126.975 119.585 130.163 120.514 137.471C121.618 146.157 122.278 150.265 123.831 157.926C124.918 163.291 129.016 186.168 129.387 189.362C129.759 192.556 130.533 196.764 131.299 199.538C132.067 202.312 135.181 208.854 136.972 210.567C137.601 211.169 138.301 211.233 138.894 211.841C139.487 212.448 139.829 213.293 140.465 213.845C141.434 214.685 142.159 214.295 143.477 213.94C143.993 213.8 144.541 213.761 145.035 214.028C145.529 214.297 145.838 214.802 146.288 215.186C147.546 216.258 149.328 216.547 151.104 215.32C152.505 216.377 153.196 216.913 154.571 217.973C154.799 218.149 155.09 218.267 155.298 218.191C155.507 218.114 155.569 217.947 155.636 217.785C156.018 216.878 156.109 216.016 155.91 215.002C155.525 213.036 154.948 212.083 153.833 210.422C152.723 208.763 149.824 203.573 148.982 201.771Z" fill="#E7DCDC"/>
<path d="M125.476 166.689L126.046 169.144C126.046 169.144 128.142 172.152 134.044 170.508C139.946 168.863 141.477 165.218 141.477 165.218L141.341 162.494C141.341 162.494 142.491 162.379 142.911 166.688C143.347 171.162 143.951 174.909 142.525 177.753C140.564 181.662 130.222 184.27 127.178 180.396C125.34 178.056 124.939 173.343 124.403 170.277C123.865 167.213 125.476 166.689 125.476 166.689Z" fill="#FAFAFA"/>
<path d="M135.697 177.54C138.409 176.907 140.363 175.517 142.415 173.393C142.641 173.16 143.014 172.711 143.389 172.192C143.348 171.177 143.256 170.106 143.142 168.979C143.12 169.015 143.103 169.057 143.08 169.093C142.461 170.088 141.725 170.976 140.886 171.732C139.235 173.223 137.351 174.191 135.283 174.65C133.103 175.134 130.755 175.29 128.578 174.82C127.514 174.589 126.179 174.142 125.177 173.668C125.09 173.628 125.004 173.573 124.918 173.527C125.1 174.642 125.314 175.784 125.604 176.86C126.064 177.028 126.524 177.179 126.97 177.297C129.823 178.046 132.821 178.212 135.697 177.54Z" fill="#A91B25"/>
<path opacity="0.2" d="M130.166 178.456C129.022 176.26 129.159 173.513 129.12 170.836C126.924 170.387 126.046 169.144 126.046 169.144L125.476 166.688C125.476 166.688 123.865 167.212 124.402 170.277C124.938 173.342 125.338 178.056 127.177 180.396C128.745 182.392 132.25 182.66 135.549 181.922C135.089 181.864 134.63 181.783 134.177 181.651C132.594 181.195 131.055 180.16 130.166 178.456Z" fill="#111111"/>
<path d="M171.372 129.702C171.479 129.64 171.519 129.56 171.509 129.468C171.459 128.994 170.11 128.211 169.962 128.118C168.053 126.911 165.927 126.326 163.83 127.037C162.501 127.487 161.237 128.155 160.064 129.058C159.935 129.159 159.8 129.262 159.664 129.371C159.877 129.238 160.086 129.109 160.274 128.998C162.426 127.723 164.052 127.868 165.26 128.608C166.062 128.395 166.876 128.314 167.708 128.438C168.894 128.614 169.813 129.068 170.914 129.639C171.06 129.713 171.227 129.784 171.372 129.702Z" fill="#E7DCDC"/>
<path d="M150.763 124.216C147.176 118.398 145.744 110.974 146.423 104.789C144.115 106.772 141.515 109.081 137.617 112.691C137.489 112.809 137.361 112.926 137.233 113.042C136.984 119.494 139.635 126.315 142.713 132.156C144.44 135.434 146.084 137.132 147.19 137.99C150.515 135.71 153.949 133.345 156.897 131.317C155.553 130.356 153.286 128.307 150.763 124.216Z" fill="#A91B25"/>
<path d="M126.141 114.627L150.092 96.9014C150.708 96.4452 151.269 96.6243 151.773 96.7788C152.277 96.9334 152.944 97.3076 153.214 97.8576L160.138 111.922C160.408 112.471 160.266 113.185 159.82 113.515L135.869 131.24C135.423 131.571 134.803 131.487 134.299 131.332C133.794 131.178 133.017 130.834 132.746 130.284L125.823 116.218C125.553 115.669 125.52 115.086 126.141 114.627Z" fill="#A91B25"/>
<path d="M126.717 115.42L133.836 129.884L157.886 112.078L160.246 112.801C160.188 113.089 160.041 113.35 159.819 113.515L135.868 131.241C135.422 131.571 134.801 131.487 134.297 131.332C133.793 131.178 133.016 130.834 132.745 130.284L125.822 116.218C125.653 115.875 125.558 115.483 125.724 115.116L125.797 115.139L126.717 115.42Z" fill="#263238"/>
<path d="M150.183 97.1456L126.274 114.841C125.921 115.103 125.808 115.673 126.021 116.108L132.779 129.838C133.069 130.427 133.7 130.621 134.178 130.267L157.934 112.686C158.245 112.455 158.346 111.952 158.156 111.567L151.213 97.4622C151.001 97.0262 150.537 96.8844 150.183 97.1456Z" fill="#455A64"/>
<path d="M149.665 98.4673L127.459 114.902C127.123 115.151 127.014 115.693 127.218 116.105L133.476 128.822C133.679 129.237 134.118 129.372 134.456 129.121L156.825 112.565C157.098 112.364 157.222 111.97 157.148 111.607C157.142 111.579 157.136 111.551 157.129 111.524C157.112 111.469 157.091 111.414 157.066 111.363L155.305 107.786C155.305 107.786 155.254 107.682 155.19 107.553C155.128 107.424 154.992 107.382 154.887 107.46C154.782 107.537 154.642 107.489 154.575 107.351L152.523 103.183C152.456 103.047 152.485 102.871 152.589 102.794C152.687 102.722 152.724 102.57 152.676 102.445C152.673 102.436 152.669 102.427 152.665 102.42L150.942 98.9214L150.906 98.8468C150.648 98.3234 150.09 98.1528 149.665 98.4673Z" fill="#A91B25"/>
<path d="M154.901 106.247L153.96 104.335C153.904 104.221 153.789 104.181 153.701 104.246C153.615 104.31 153.59 104.455 153.646 104.569L154.587 106.479C154.643 106.593 154.759 106.634 154.845 106.57C154.932 106.506 154.957 106.361 154.901 106.247Z" fill="#263238"/>
<path d="M153.541 103.309C153.479 103.181 153.343 103.139 153.238 103.216C153.133 103.293 153.1 103.46 153.164 103.588C153.227 103.716 153.363 103.759 153.467 103.681C153.571 103.604 153.604 103.437 153.541 103.309Z" fill="#263238"/>
<path d="M155.774 114.728C155.949 114.598 156.306 114.559 156.571 114.64C156.698 114.679 156.781 114.739 156.811 114.805C156.833 114.852 156.925 115.031 156.948 115.08C156.981 115.15 156.957 115.228 156.867 115.295L154.915 116.74C154.739 116.87 154.382 116.909 154.118 116.828C153.995 116.791 153.915 116.734 153.881 116.672C153.854 116.622 153.763 116.437 153.74 116.388C153.706 116.318 153.731 116.24 153.822 116.173L155.774 114.728Z" fill="#455A64"/>
<path d="M155.908 115.001L153.956 116.446C153.78 116.576 153.853 116.747 154.118 116.828C154.382 116.909 154.74 116.87 154.915 116.74L156.867 115.295C157.043 115.165 156.97 114.994 156.705 114.913C156.441 114.832 156.084 114.871 155.908 115.001Z" fill="#A91B25"/>
<path d="M152.358 117.256C152.534 117.126 152.891 117.086 153.156 117.167C153.283 117.207 153.365 117.266 153.397 117.333C153.419 117.379 153.511 117.559 153.534 117.608C153.567 117.678 153.542 117.756 153.452 117.823L151.501 119.267C151.325 119.397 150.968 119.437 150.703 119.356C150.581 119.319 150.501 119.262 150.467 119.199C150.441 119.15 150.349 118.965 150.326 118.916C150.292 118.845 150.317 118.767 150.407 118.7L152.358 117.256Z" fill="#455A64"/>
<path d="M152.493 117.53L150.541 118.974C150.365 119.104 150.437 119.276 150.702 119.357C150.967 119.438 151.325 119.398 151.5 119.268L153.451 117.824C153.627 117.694 153.555 117.522 153.29 117.441C153.025 117.359 152.668 117.399 152.493 117.53Z" fill="#A91B25"/>
<path d="M275.808 115.083C277.632 112.296 277.584 104.101 273.151 95.8182C269.68 89.3305 265.099 86.5451 258.683 81.5199C250.537 75.1399 245.864 72.977 244.032 64.5332C242.595 57.9112 242.825 57.0393 240.309 53.2358C238.971 51.2136 235.885 46.6095 234.739 45.0691C233.594 43.5298 230.247 41.2486 227.804 38.897C225.366 36.7341 225.19 40.609 226.203 42.6067C227.524 45.2109 228.929 46.6095 230.256 48.2416C231.51 49.7841 232.251 51.527 233.273 53.2443C232.034 53.208 228.954 53.53 227.763 53.9553C226.804 54.2964 225.582 54.4563 225.123 55.7558C224.865 56.4881 224.915 57.795 224.879 58.5668C224.879 58.5668 224.345 58.7683 224.07 59.4004C223.791 60.0454 223.943 61.0421 224.125 61.6955C224.268 62.2072 224.553 62.8585 224.553 62.8585C223.92 63.1059 223.536 64.0972 223.485 64.7134C223.314 66.8113 224.295 69.5104 224.529 69.8814C224.668 70.1031 225.926 71.7085 226.288 72.1828C226.811 72.8683 227.168 73.5207 227.669 73.7211C228.263 73.9588 229.141 72.3705 229.039 71.3418C228.971 70.2257 228.357 68.7791 228.118 68.1448C228.957 68.2898 229.684 68.4113 230.574 68.2866C231.915 68.7599 230.792 71.4676 232.894 76.8701C234.482 80.9507 238.082 82.5923 239.352 84.1167C247.127 93.4495 251.08 105.457 259.225 112.396C262.478 115.168 272.274 120.483 275.808 115.083Z" fill="#E7DCDC"/>
<path d="M237.906 82.8172C238.466 83.1839 238.992 83.6678 239.483 84.2765C239.483 84.2765 241.999 85.4075 245.358 80.3579C248.718 75.3083 247.978 72.7275 247.978 72.7275L246.883 71.3428C246.883 71.3428 248.309 69.1415 250.606 72.3778C252.991 75.7379 254.352 74.6282 254.678 77.8358C255.125 82.2458 248.265 94.2756 244.336 93.0422C241.964 92.2982 241.692 89.4051 239.075 86.9692C237.079 85.1101 237.906 82.8172 237.906 82.8172Z" fill="#FAFAFA"/>
<path d="M240.559 88.6907C241.087 89.4369 241.5 90.1682 241.911 90.8195C244.927 89.9731 247.71 87.9083 249.784 85.0311C251.315 82.9066 252.204 80.2288 252.549 77.4359C252.665 76.5042 252.713 75.5608 252.71 74.6195C252.256 74.2613 251.727 73.7966 251.121 73.0525C251.035 74.3957 250.975 75.7516 250.709 77.0489C250.248 79.2982 249.382 81.2692 248.151 82.9428C246.853 84.7081 245.284 86.3114 243.543 87.2985C242.542 87.8678 241.599 88.4061 240.559 88.6907Z" fill="#A91B25"/>
<path opacity="0.2" d="M250.815 88.0682C250.36 88.4029 249.882 88.6875 249.387 88.9146C248.515 89.3132 247.496 89.5201 246.693 88.9359C245.751 88.2504 245.439 86.7463 244.717 85.724C244.286 85.1132 243.703 84.6698 243.358 83.9801C243.215 83.6954 243.135 83.3724 243.091 83.0409C240.93 84.9213 239.485 84.2775 239.485 84.2775C238.994 83.6698 238.468 83.1848 237.909 82.8181C237.909 82.8181 237.081 85.1111 239.077 86.9702C241.694 89.406 241.966 92.2991 244.338 93.0432C246.201 93.6273 248.724 91.2246 250.815 88.0682Z" fill="#111111"/>
<path d="M232.711 52.2485C232.894 52.5811 233.076 52.9137 233.273 53.2452C233.783 53.2772 235.77 53.5032 236.577 53.9946C235.933 52.8903 234.156 52.4351 232.711 52.2485ZM233.537 56.8323C232.541 56.6458 231.543 56.7673 230.576 56.8707C229.602 56.9997 228.631 57.166 227.673 57.4314C226.72 57.7011 225.751 57.9911 224.878 58.5678C225.825 58.2682 226.785 58.1233 227.745 57.9655C228.706 57.8301 229.667 57.683 230.63 57.5743C231.599 57.4549 232.55 57.3206 233.497 57.3739C233.973 57.393 234.449 57.4613 234.917 57.5807C235.388 57.6862 235.862 57.8258 236.284 58.1318C235.53 57.3088 234.506 57.0232 233.537 56.8323ZM230.185 61.3735C229.225 61.4726 228.268 61.6102 227.324 61.8511C226.381 62.0909 225.438 62.3755 224.552 62.8595C226.444 62.4661 228.332 62.2561 230.226 62.0792C231.172 61.9832 232.119 61.9246 233.065 61.8926C233.538 61.8745 234.011 61.883 234.482 61.9193C234.947 61.9673 235.43 61.9886 235.862 62.2593C235.058 61.5313 234.02 61.4673 233.077 61.3479C232.111 61.252 231.146 61.2925 230.185 61.3735ZM228.811 69.6574C228.658 69.1286 228.471 68.7001 228.27 68.3856L228.117 68.1458L227.914 68.2588C227.854 68.2929 227.71 68.3462 227.593 68.3547C227.468 68.3611 227.335 68.3686 227.198 68.3441C226.929 68.2854 226.646 68.1671 226.351 68.0147C226.523 68.3505 226.773 68.6319 227.084 68.8067C227.239 68.892 227.408 68.9687 227.588 68.9783C227.701 68.9837 227.81 68.9762 227.924 68.9517C228.16 69.344 228.376 69.5977 228.542 69.9644C228.758 70.3599 228.889 70.8289 229.038 71.3417C229.156 70.8172 228.96 70.2 228.811 69.6574Z" fill="#E7DCDC"/>
<path d="M235.969 19.8786C234.841 19.9021 233.763 20.596 232.886 21.4392C232.475 21.8347 232.115 22.3091 231.797 22.8208C231.489 23.3143 231.295 23.8953 231.169 24.5019C231.139 24.6447 231.026 25.151 231.168 25.2544C231.314 25.36 231.435 24.9784 231.469 24.8718C231.839 23.7237 232.438 22.7973 233.249 22.0991C233.8 21.6237 234.422 21.2431 235.079 21.0683C235.657 20.9148 236.479 20.8764 236.947 21.4168C237.312 21.839 237.277 22.3006 237.014 22.7877C236.94 22.9252 236.86 23.0606 236.757 23.1651C236.507 23.4231 236.1 23.5361 235.788 23.6181C235.436 23.7119 235.068 23.7247 234.711 23.681C234.409 23.6437 234.107 23.5947 233.803 23.5734C233.554 23.5552 233.204 23.4817 233.008 23.7258C232.994 23.7439 232.979 23.7652 232.976 23.7898C232.967 23.8612 233.04 23.8964 233.097 23.9081C233.307 23.9486 233.515 24.0062 233.72 24.0797C234.104 24.2172 234.474 24.4091 234.858 24.5477C235.313 24.7119 236.043 24.6681 236.515 24.5392C237.623 24.2354 238.159 23.1853 238.19 21.9125C238.224 20.4734 236.926 19.8594 235.969 19.8786Z" fill="#BA68C8"/>
<path d="M242.499 33.7132C241.323 32.466 239.716 31.965 238.212 31.8445C237.505 31.788 236.796 31.8712 236.101 32.0375C235.43 32.1985 234.817 32.578 234.252 33.0587C234.118 33.1728 233.64 33.5651 233.712 33.8316C233.787 34.1055 234.184 33.8486 234.296 33.7772C235.498 33.0139 236.779 32.7368 238.111 32.9308C239.019 33.063 239.931 33.3721 240.732 33.9339C241.435 34.4264 242.309 35.3133 242.402 36.3964C242.475 37.2417 242.109 37.6766 241.49 37.8813C241.316 37.9389 241.137 37.9879 240.956 37.9804C240.514 37.9634 240.014 37.6212 239.635 37.3547C239.207 37.0541 238.819 36.6543 238.484 36.2055C238.2 35.8261 237.924 35.4359 237.627 35.0713C237.384 34.7728 237.077 34.3038 236.701 34.3326C236.673 34.3347 236.643 34.3401 236.622 34.3624C236.563 34.4253 236.612 34.5458 236.662 34.6204C236.849 34.8997 237.022 35.1929 237.18 35.4988C237.476 36.0723 237.719 36.6874 238.014 37.2609C238.365 37.9442 239.147 38.7202 239.724 39.1189C241.08 40.0549 242.384 39.5794 243.326 38.3056C244.392 36.8643 243.498 34.7707 242.499 33.7132Z" fill="#BA68C8"/>
<path d="M144.301 47.6107C145.449 46.8964 146.826 46.8922 148.061 47.1683C148.64 47.2983 149.201 47.5424 149.734 47.8494C150.25 48.1458 150.686 48.6052 151.066 49.135C151.156 49.2598 151.481 49.6968 151.38 49.893C151.276 50.0955 150.996 49.7885 150.917 49.7043C150.066 48.7886 149.076 48.246 147.969 48.0701C147.215 47.9507 146.43 47.9731 145.693 48.2279C145.047 48.4507 144.202 48.9495 143.955 49.8013C143.762 50.4654 143.989 50.9089 144.457 51.2276C144.588 51.3182 144.725 51.4013 144.872 51.4408C145.232 51.5367 145.69 51.3854 146.039 51.2649C146.433 51.1284 146.809 50.9025 147.151 50.6232C147.441 50.3876 147.725 50.1413 148.022 49.9207C148.266 49.7395 148.588 49.4378 148.888 49.554C148.91 49.5625 148.933 49.5742 148.946 49.5977C148.985 49.6638 148.925 49.748 148.873 49.7959C148.679 49.975 148.492 50.169 148.316 50.3758C147.986 50.7649 147.692 51.2009 147.363 51.5922C146.972 52.0569 146.217 52.4887 145.687 52.6667C144.444 53.0846 143.466 52.3757 142.906 51.1125C142.274 49.6851 143.327 48.2172 144.301 47.6107Z" fill="#BA68C8"/>
<path d="M149.325 64.315C149.608 62.151 150.702 60.2322 151.931 58.7376C152.508 58.0352 153.169 57.4521 153.867 56.9542C154.54 56.4735 155.294 56.2336 156.065 56.127C156.247 56.1025 156.891 55.9991 156.986 56.2954C157.082 56.6003 156.587 56.7464 156.449 56.789C154.962 57.241 153.693 58.1844 152.655 59.5841C151.949 60.5371 151.343 61.6468 150.98 62.8727C150.663 63.9483 150.429 65.5217 150.985 66.5429C151.418 67.3403 151.991 67.3776 152.646 66.9821C152.83 66.8702 153.014 66.7476 153.166 66.5749C153.537 66.1517 153.768 65.3948 153.939 64.8139C154.133 64.1572 154.233 63.4536 154.259 62.7565C154.281 62.1659 154.29 61.5743 154.333 60.9848C154.367 60.5019 154.357 59.8132 154.698 59.4902C154.724 59.4668 154.753 59.4433 154.784 59.4433C154.873 59.4423 154.901 59.5926 154.901 59.7034C154.903 60.1171 154.926 60.5307 154.969 60.94C155.05 61.7097 155.202 62.4644 155.285 63.234C155.383 64.1476 155.164 65.5419 154.899 66.4192C154.277 68.4809 152.871 69.2751 151.309 69.0459C149.541 68.7868 149.084 66.1517 149.325 64.315Z" fill="#BA68C8"/>
<g opacity="0.7">
<path d="M235.969 19.8786C234.841 19.9021 233.763 20.596 232.886 21.4392C232.475 21.8347 232.115 22.3091 231.797 22.8208C231.489 23.3143 231.295 23.8953 231.169 24.5019C231.139 24.6447 231.026 25.151 231.168 25.2544C231.314 25.36 231.435 24.9784 231.469 24.8718C231.839 23.7237 232.438 22.7973 233.249 22.0991C233.8 21.6237 234.422 21.2431 235.079 21.0683C235.657 20.9148 236.479 20.8764 236.947 21.4168C237.312 21.839 237.277 22.3006 237.014 22.7877C236.94 22.9252 236.86 23.0606 236.757 23.1651C236.507 23.4231 236.1 23.5361 235.788 23.6181C235.436 23.7119 235.068 23.7247 234.711 23.681C234.409 23.6437 234.107 23.5947 233.803 23.5734C233.554 23.5552 233.204 23.4817 233.008 23.7258C232.994 23.7439 232.979 23.7652 232.976 23.7898C232.967 23.8612 233.04 23.8964 233.097 23.9081C233.307 23.9486 233.515 24.0062 233.72 24.0797C234.104 24.2172 234.474 24.4091 234.858 24.5477C235.313 24.7119 236.043 24.6681 236.515 24.5392C237.623 24.2354 238.159 23.1853 238.19 21.9125C238.224 20.4734 236.926 19.8594 235.969 19.8786Z" fill="#A91B25"/>
<path d="M242.499 33.7132C241.323 32.466 239.716 31.965 238.212 31.8445C237.505 31.788 236.796 31.8712 236.101 32.0375C235.43 32.1985 234.817 32.578 234.252 33.0587C234.118 33.1728 233.64 33.5651 233.712 33.8316C233.787 34.1055 234.184 33.8486 234.296 33.7772C235.498 33.0139 236.779 32.7368 238.111 32.9308C239.019 33.063 239.931 33.3721 240.732 33.9339C241.435 34.4264 242.309 35.3133 242.402 36.3964C242.475 37.2417 242.109 37.6766 241.49 37.8813C241.316 37.9389 241.137 37.9879 240.956 37.9804C240.514 37.9634 240.014 37.6212 239.635 37.3547C239.207 37.0541 238.819 36.6543 238.484 36.2055C238.2 35.8261 237.924 35.4359 237.627 35.0713C237.384 34.7728 237.077 34.3038 236.701 34.3326C236.673 34.3347 236.643 34.3401 236.622 34.3624C236.563 34.4253 236.612 34.5458 236.662 34.6204C236.849 34.8997 237.022 35.1929 237.18 35.4988C237.476 36.0723 237.719 36.6874 238.014 37.2609C238.365 37.9442 239.147 38.7202 239.724 39.1189C241.08 40.0549 242.384 39.5794 243.326 38.3056C244.392 36.8643 243.498 34.7707 242.499 33.7132Z" fill="#A91B25"/>
<path d="M144.301 47.6107C145.449 46.8964 146.826 46.8922 148.061 47.1683C148.64 47.2983 149.201 47.5424 149.734 47.8494C150.25 48.1458 150.686 48.6052 151.066 49.135C151.156 49.2598 151.481 49.6968 151.38 49.893C151.276 50.0955 150.996 49.7885 150.917 49.7043C150.066 48.7886 149.076 48.246 147.969 48.0701C147.215 47.9507 146.43 47.9731 145.693 48.2279C145.047 48.4507 144.202 48.9495 143.955 49.8013C143.762 50.4654 143.989 50.9089 144.457 51.2276C144.588 51.3182 144.725 51.4013 144.872 51.4408C145.232 51.5367 145.69 51.3854 146.039 51.2649C146.433 51.1284 146.809 50.9025 147.151 50.6232C147.441 50.3876 147.725 50.1413 148.022 49.9207C148.266 49.7395 148.588 49.4378 148.888 49.554C148.91 49.5625 148.933 49.5742 148.946 49.5977C148.985 49.6638 148.925 49.748 148.873 49.7959C148.679 49.975 148.492 50.169 148.316 50.3758C147.986 50.7649 147.692 51.2009 147.363 51.5922C146.972 52.0569 146.217 52.4887 145.687 52.6667C144.444 53.0846 143.466 52.3757 142.906 51.1125C142.274 49.6851 143.327 48.2172 144.301 47.6107Z" fill="#A91B25"/>
<path d="M149.325 64.315C149.608 62.151 150.702 60.2322 151.931 58.7376C152.508 58.0352 153.169 57.4521 153.867 56.9542C154.54 56.4735 155.294 56.2336 156.065 56.127C156.247 56.1025 156.891 55.9991 156.986 56.2954C157.082 56.6003 156.587 56.7464 156.449 56.789C154.962 57.241 153.693 58.1844 152.655 59.5841C151.949 60.5371 151.343 61.6468 150.98 62.8727C150.663 63.9483 150.429 65.5217 150.985 66.5429C151.418 67.3403 151.991 67.3776 152.646 66.9821C152.83 66.8702 153.014 66.7476 153.166 66.5749C153.537 66.1517 153.768 65.3948 153.939 64.8139C154.133 64.1572 154.233 63.4536 154.259 62.7565C154.281 62.1659 154.29 61.5743 154.333 60.9848C154.367 60.5019 154.357 59.8132 154.698 59.4902C154.724 59.4668 154.753 59.4433 154.784 59.4433C154.873 59.4423 154.901 59.5926 154.901 59.7034C154.903 60.1171 154.926 60.5307 154.969 60.94C155.05 61.7097 155.202 62.4644 155.285 63.234C155.383 64.1476 155.164 65.5419 154.899 66.4192C154.277 68.4809 152.871 69.2751 151.309 69.0459C149.541 68.7868 149.084 66.1517 149.325 64.315Z" fill="#A91B25"/>
</g>
<path d="M138.677 290.585L148.421 297.299L158.115 304.123L177.425 317.941L196.622 332.002L206.181 339.119L215.689 346.347L205.944 339.635L196.25 332.81L176.941 318.991L157.745 304.928L148.185 297.811L138.677 290.585Z" fill="#E0E0E0"/>
<path d="M154.372 319.013C156.557 320.438 158.712 321.931 160.883 323.388L167.344 327.872C171.646 330.873 175.904 333.969 180.187 337.012C184.43 340.141 188.695 343.224 192.919 346.395L199.244 351.173C201.335 352.804 203.442 354.399 205.519 356.062C203.333 354.638 201.178 353.144 199.007 351.688L192.546 347.203C188.245 344.199 183.985 341.108 179.704 338.061C175.462 334.929 171.197 331.85 166.974 328.676L160.648 323.898C158.556 322.271 156.448 320.676 154.372 319.013Z" fill="#E0E0E0"/>
<path d="M114.655 245.962L106.661 239.965C101.326 235.981 95.9497 232.084 90.5947 228.143C85.1997 224.286 82.2621 222.146 76.8476 218.333L71.0872 214.29V215.094L76.4762 219.137C81.8099 223.124 84.7552 225.249 90.1093 229.193C95.5026 233.052 100.875 236.958 106.287 240.774L114.416 246.478C117.144 248.342 119.854 250.24 122.596 252.071C119.966 250.001 117.302 247.999 114.655 245.962Z" fill="#E0E0E0"/>
<path d="M73.8021 233.693C75.236 234.582 76.6394 235.538 78.0589 236.459L82.2647 239.334C85.068 241.252 87.833 243.252 90.5981 245.253C93.3512 247.28 96.1035 249.307 98.8184 251.417L102.889 254.585C104.228 255.679 105.584 256.737 106.908 257.864C105.473 256.976 104.071 256.02 102.65 255.1L98.4444 252.225C95.6411 250.306 92.8761 248.305 90.1119 246.303C87.3596 244.276 84.6064 242.248 81.8924 240.138L77.8217 236.971C76.4821 235.876 75.1264 234.817 73.8021 233.693Z" fill="#E0E0E0"/>
</svg>